<svg width="20" height="20" viewBox="0 0 20 20" fill="none" xmlns="http://www.w3.org/2000/svg">
<path d="M15.492 1.05355L18.671 4.23355C18.8799 4.44248 19.0457 4.69052 19.1587 4.96351C19.2718 5.23649 19.33 5.52907 19.33 5.82455C19.33 6.12003 19.2718 6.41261 19.1587 6.6856C19.0457 6.95858 18.8799 7.20662 18.671 7.41555L16.248 9.83755C16.7561 9.99705 17.2001 10.3146 17.5152 10.7439C17.8303 11.1733 18.0002 11.692 18 12.2246V17.2246C18 17.8876 17.7366 18.5235 17.2678 18.9923C16.7989 19.4612 16.163 19.7246 15.5 19.7246H2.5C2.17161 19.7246 1.84644 19.6599 1.54306 19.5342C1.23968 19.4085 0.964039 19.2242 0.73188 18.992C0.49972 18.7597 0.315592 18.484 0.190014 18.1806C0.0644364 17.8771 -0.000131156 17.5519 2.00018e-07 17.2236V4.22355C2.00018e-07 3.56051 0.263392 2.92462 0.732233 2.45578C1.20107 1.98694 1.83696 1.72355 2.5 1.72355H7.5C8.03286 1.72336 8.55185 1.89343 8.98125 2.20896C9.41064 2.52449 9.72799 2.96897 9.887 3.47755L12.31 1.05355C12.5189 0.844616 12.767 0.67888 13.04 0.565805C13.3129 0.45273 13.6055 0.394531 13.901 0.394531C14.1965 0.394531 14.4891 0.45273 14.762 0.565805C15.035 0.67888 15.2831 0.844616 15.492 1.05355ZM8 11.7236H2V17.2236C2 17.3562 2.05268 17.4833 2.14645 17.5771C2.24022 17.6709 2.36739 17.7236 2.5 17.7236H8V11.7236ZM15.5 11.7236H10V17.7236H15.5C15.6326 17.7236 15.7598 17.6709 15.8536 17.5771C15.9473 17.4833 16 17.3562 16 17.2236V12.2236C16 12.0909 15.9473 11.9638 15.8536 11.87C15.7598 11.7762 15.6326 11.7236 15.5 11.7236ZM11.44 9.72355L10 8.28355V9.72355H11.44ZM7.5 3.72355H2.5C2.36739 3.72355 2.24022 3.77623 2.14645 3.87C2.05268 3.96377 2 4.09094 2 4.22355V9.72355H8V4.22355C8 4.09094 7.94732 3.96377 7.85355 3.87C7.75979 3.77623 7.63261 3.72355 7.5 3.72355Z" fill="#ACACAC"/>
</svg>
