<svg width="31" height="32" viewBox="0 0 31 32" fill="none" xmlns="http://www.w3.org/2000/svg">
<rect y="0.5" width="31" height="31" rx="15.5" fill="#144CC9"/>
<rect x="0.275122" y="0.775122" width="30.4498" height="30.4498" rx="15.2249" stroke="#0389E2" stroke-opacity="0.35" stroke-width="0.550245"/>
<path d="M21.6997 16.2586C21.6997 17.8344 21.0737 19.3457 19.9595 20.46C18.8452 21.5742 17.3339 22.2002 15.7581 22.2002C14.1822 22.2002 12.671 21.5742 11.5567 20.46C10.4424 19.3457 9.81641 17.8344 9.81641 16.2586C9.81641 14.6827 10.4424 13.1714 11.5567 12.0572C12.671 10.9429 14.1822 10.3169 15.7581 10.3169C17.3339 10.3169 18.8452 10.9429 19.9595 12.0572C21.0737 13.1714 21.6997 14.6827 21.6997 16.2586ZM12.7872 16.2586C12.7872 16.3571 12.8264 16.4515 12.896 16.5211C12.9656 16.5908 13.0601 16.6299 13.1586 16.6299H15.3867V18.858C15.3867 18.9565 15.4258 19.051 15.4955 19.1206C15.5651 19.1903 15.6596 19.2294 15.7581 19.2294C15.8566 19.2294 15.951 19.1903 16.0207 19.1206C16.0903 19.051 16.1294 18.9565 16.1294 18.858V16.6299H18.3576C18.456 16.6299 18.5505 16.5908 18.6201 16.5211C18.6898 16.4515 18.7289 16.3571 18.7289 16.2586C18.7289 16.1601 18.6898 16.0656 18.6201 15.996C18.5505 15.9263 18.456 15.8872 18.3576 15.8872H16.1294V13.6591C16.1294 13.5606 16.0903 13.4661 16.0207 13.3965C15.951 13.3269 15.8566 13.2877 15.7581 13.2877C15.6596 13.2877 15.5651 13.3269 15.4955 13.3965C15.4258 13.4661 15.3867 13.5606 15.3867 13.6591V15.8872H13.1586C13.0601 15.8872 12.9656 15.9263 12.896 15.996C12.8264 16.0656 12.7872 16.1601 12.7872 16.2586Z" fill="white"/>
</svg>
