<svg width="22" height="23" viewBox="0 0 22 23" fill="none" xmlns="http://www.w3.org/2000/svg">
<path fill-rule="evenodd" clip-rule="evenodd" d="M21.1539 20.4913C21.6209 20.4913 22 20.8704 22 21.3374C22 21.8045 21.6209 22.1836 21.1539 22.1836H12.9712C12.5041 22.1836 12.1251 21.8045 12.1251 21.3374C12.1251 20.8704 12.5041 20.4913 12.9712 20.4913H21.1539ZM15.9257 1.55383C15.9821 1.59783 17.8695 3.06446 17.8695 3.06446C18.5554 3.47286 19.0913 4.20279 19.2944 5.06698C19.4963 5.92214 19.3497 6.80437 18.8792 7.5501C18.8761 7.55507 18.873 7.55998 18.8621 7.5746L18.8536 7.5859C18.7772 7.68654 18.4453 8.10628 16.7699 10.2054C16.7543 10.2329 16.7367 10.2586 16.7174 10.2837C16.6892 10.3206 16.6584 10.3545 16.6256 10.3854C16.5113 10.5293 16.3906 10.6805 16.2637 10.8394L16.0066 11.1615C15.476 11.8259 14.8467 12.6139 14.1 13.5484L13.7169 14.028C12.2754 15.8322 10.4294 18.1421 8.06452 21.1006C7.54669 21.746 6.7705 22.1216 5.93678 22.1318L1.83134 22.1837H1.82006C1.42858 22.1837 1.08787 21.9152 0.99649 21.5327L0.0725128 17.6168C-0.118149 16.8057 0.0713847 15.9686 0.591475 15.3187L11.2189 2.02654C11.2234 2.02203 11.2268 2.01638 11.2313 2.01187C12.3967 0.618572 14.5042 0.413244 15.9257 1.55383ZM10.034 6.21699L1.91257 16.3758C1.71965 16.6173 1.64858 16.9286 1.71965 17.2276L2.48794 20.4824L5.91647 20.4395C6.24252 20.4361 6.54374 20.2906 6.74343 20.0424C7.77174 18.7558 9.06415 17.1387 10.3929 15.476L10.863 14.8877L11.3339 14.2984C12.5801 12.7389 13.8112 11.198 14.8413 9.90824L10.034 6.21699ZM12.5344 3.09154L11.0911 4.89477L15.898 8.58496C16.8233 7.42606 17.4319 6.66278 17.4882 6.59002C17.6732 6.28992 17.7454 5.86573 17.6484 5.45733C17.5491 5.03877 17.2885 4.6834 16.9128 4.45663C16.8327 4.40135 14.9317 2.9257 14.8731 2.87944C14.1578 2.30633 13.1142 2.40561 12.5344 3.09154Z" fill="#134BC8"/>
</svg>
