<svg width="19" height="20" viewBox="0 0 19 20" fill="none" xmlns="http://www.w3.org/2000/svg">
<path d="M8.05 0.529535C8.45577 0.187557 8.96935 0 9.5 0C10.0307 0 10.5442 0.187557 10.95 0.529535L17.7 6.22453C18.208 6.65154 18.5 7.28054 18.5 7.94454V17.7465C18.5 18.2107 18.3156 18.6558 17.9874 18.984C17.6592 19.3122 17.2141 19.4965 16.75 19.4965H13.75C13.2859 19.4965 12.8408 19.3122 12.5126 18.984C12.1844 18.6558 12 18.2107 12 17.7465V12.7465C12 12.5476 11.921 12.3569 11.7803 12.2162C11.6397 12.0756 11.4489 11.9965 11.25 11.9965H7.75C7.55109 11.9965 7.36032 12.0756 7.21967 12.2162C7.07902 12.3569 7 12.5476 7 12.7465V17.7465C7 18.2107 6.81563 18.6558 6.48744 18.984C6.15925 19.3122 5.71413 19.4965 5.25 19.4965H2.25C2.02019 19.4965 1.79262 19.4513 1.5803 19.3633C1.36798 19.2754 1.17507 19.1465 1.01256 18.984C0.850061 18.8215 0.721157 18.6286 0.633211 18.4162C0.545265 18.2039 0.5 17.9763 0.5 17.7465V7.94353C0.5 7.28053 0.792 6.65154 1.3 6.22354L8.05 0.529535Z" fill="white"/>
</svg>
