<svg width="22" height="21" viewBox="0 0 22 21" fill="none" xmlns="http://www.w3.org/2000/svg">
<path d="M3 12L4.57465 18.2986C4.61893 18.4757 4.64107 18.5643 4.66727 18.6416C4.92317 19.3971 5.60352 19.9283 6.39852 19.9933C6.4799 20 6.5712 20 6.75379 20C6.98244 20 7.09677 20 7.19308 19.9907C8.145 19.8983 8.89834 19.145 8.99066 18.1931C9 18.0968 9 17.9824 9 17.7538V3.5M17.5 11.5C19.433 11.5 21 9.933 21 8C21 6.06701 19.433 4.5 17.5 4.5M9.25 3.5H5.5C3.01472 3.5 0.999998 5.51472 1 8.00001C1 10.4853 3.01472 12.5 5.5 12.5H9.25C11.0164 12.5 13.1772 13.4469 14.8443 14.3556C15.8168 14.8858 16.3031 15.1509 16.6216 15.1119C16.9169 15.0757 17.1402 14.9431 17.3133 14.7011C17.5 14.4402 17.5 13.918 17.5 12.8737V3.12629C17.5 2.082 17.5 1.55985 17.3133 1.29889C17.1402 1.0569 16.9169 0.924303 16.6216 0.888132C16.3031 0.849125 15.8168 1.1142 14.8443 1.64436C13.1772 2.55312 11.0164 3.5 9.25 3.5Z" stroke="#545454" stroke-width="1.5" stroke-linecap="round" stroke-linejoin="round"/>
</svg>
