<svg width="40" height="40" viewBox="0 0 40 40" fill="none" xmlns="http://www.w3.org/2000/svg">
<g filter="url(#filter0_d_5_22010)">
<rect x="4" width="32" height="32" rx="16" fill="#134BC8"/>
<rect x="5" y="1" width="30" height="30" rx="15" stroke="#FFF6F6" stroke-width="2"/>
</g>
<path fill-rule="evenodd" clip-rule="evenodd" d="M24.5769 19.8375C24.8105 19.8375 25 20.027 25 20.2605C25 20.4941 24.8105 20.6836 24.5769 20.6836H20.4856C20.2521 20.6836 20.0625 20.4941 20.0625 20.2605C20.0625 20.027 20.2521 19.8375 20.4856 19.8375H24.5769ZM21.9628 10.3687C21.991 10.3907 22.9348 11.124 22.9348 11.124C23.2777 11.3282 23.5457 11.6932 23.6472 12.1253C23.7482 12.5529 23.6748 12.994 23.4396 13.3668C23.438 13.3693 23.4365 13.3718 23.431 13.3791L23.4268 13.3847C23.3886 13.4351 23.2226 13.6449 22.3849 14.6945C22.3772 14.7082 22.3683 14.7211 22.3587 14.7336C22.3446 14.7521 22.3292 14.769 22.3128 14.7845C22.2557 14.8564 22.1953 14.932 22.1319 15.0115L22.0033 15.1725C21.738 15.5048 21.4233 15.8987 21.05 16.366L20.8584 16.6058C20.1377 17.5079 19.2147 18.6628 18.0323 20.1421C17.7733 20.4648 17.3853 20.6526 16.9684 20.6577L14.9157 20.6836H14.91C14.7143 20.6836 14.5439 20.5494 14.4982 20.3582L14.0363 18.4002C13.9409 17.9946 14.0357 17.5761 14.2957 17.2512L19.6095 10.6051C19.6117 10.6028 19.6134 10.6 19.6157 10.5977C20.1984 9.90108 21.2521 9.79842 21.9628 10.3687ZM19.017 12.7003L14.9563 17.7797C14.8598 17.9004 14.8243 18.0561 14.8598 18.2056L15.244 19.833L16.9582 19.8116C17.1213 19.8099 17.2719 19.7371 17.3717 19.613C17.8859 18.9697 18.5321 18.1612 19.1965 17.3298L19.4315 17.0356L19.667 16.741C20.2901 15.9612 20.9056 15.1908 21.4207 14.5459L19.017 12.7003ZM20.2672 11.1376L19.5456 12.0392L21.949 13.8843C22.4116 13.3048 22.716 12.9232 22.7441 12.8868C22.8366 12.7368 22.8727 12.5247 22.8242 12.3205C22.7746 12.1112 22.6443 11.9335 22.4564 11.8201C22.4164 11.7925 21.4659 11.0546 21.4365 11.0315C21.0789 10.745 20.5571 10.7946 20.2672 11.1376Z" fill="#FFF6F6"/>
<defs>
<filter id="filter0_d_5_22010" x="0" y="0" width="40" height="40" filterUnits="userSpaceOnUse" color-interpolation-filters="sRGB">
<feFlood flood-opacity="0" result="BackgroundImageFix"/>
<feColorMatrix in="SourceAlpha" type="matrix" values="0 0 0 0 0 0 0 0 0 0 0 0 0 0 0 0 0 0 127 0" result="hardAlpha"/>
<feOffset dy="4"/>
<feGaussianBlur stdDeviation="2"/>
<feComposite in2="hardAlpha" operator="out"/>
<feColorMatrix type="matrix" values="0 0 0 0 0.420833 0 0 0 0 0.420833 0 0 0 0 0.420833 0 0 0 0.25 0"/>
<feBlend mode="normal" in2="BackgroundImageFix" result="effect1_dropShadow_5_22010"/>
<feBlend mode="normal" in="SourceGraphic" in2="effect1_dropShadow_5_22010" result="shape"/>
</filter>
</defs>
</svg>
