<svg width="37" height="39" viewBox="0 0 37 39" fill="none" xmlns="http://www.w3.org/2000/svg">
<path d="M22.0163 10C24.8302 10 26.3971 11.6215 26.3971 14.3999V23.81C26.3971 26.6339 24.8302 28.219 22.0163 28.219H14.3817C11.6124 28.219 10 26.6339 10 23.81V14.3999C10 11.6215 11.6124 10 14.3817 10H22.0163ZM14.6276 22.5164C14.3543 22.4891 14.0902 22.6166 13.9444 22.8535C13.7987 23.0812 13.7987 23.3818 13.9444 23.6187C14.0902 23.8464 14.3543 23.983 14.6276 23.9466H21.7694C22.1329 23.9102 22.4071 23.5995 22.4071 23.2361C22.4071 22.8626 22.1329 22.5529 21.7694 22.5164H14.6276ZM21.7694 18.3616H14.6276C14.235 18.3616 13.9171 18.6813 13.9171 19.073C13.9171 19.4647 14.235 19.7836 14.6276 19.7836H21.7694C22.1612 19.7836 22.48 19.4647 22.48 19.073C22.48 18.6813 22.1612 18.3616 21.7694 18.3616ZM17.3504 14.2359H14.6276V14.245C14.235 14.245 13.9171 14.5638 13.9171 14.9556C13.9171 15.3473 14.235 15.6661 14.6276 15.6661H17.3504C17.7431 15.6661 18.0619 15.3473 18.0619 14.9455C18.0619 14.5547 17.7431 14.2359 17.3504 14.2359Z" fill="#ACACAC"/>
</svg>
