<svg width="18" height="19" viewBox="0 0 18 19" fill="none" xmlns="http://www.w3.org/2000/svg">
<path fill-rule="evenodd" clip-rule="evenodd" d="M12.1895 0C12.5554 0 12.8523 0.296929 12.8523 0.662788L12.8527 1.41201C14.1431 1.50048 15.2147 1.94245 15.9732 2.70249C16.8012 3.53407 17.2369 4.72974 17.2325 6.16401V14.2262C17.2325 17.1707 15.3625 19 12.3535 19H4.879C1.86994 19 0 17.1451 0 14.159V6.16225C0 3.38489 1.66762 1.60213 4.38738 1.41232L4.38792 0.662788C4.38792 0.296929 4.68485 0 5.05071 0C5.41657 0 5.71349 0.296929 5.71349 0.662788L5.71323 1.39539H11.5263L11.5268 0.662788C11.5268 0.296929 11.8237 0 12.1895 0ZM15.9069 7.86862H1.32558V14.159C1.32558 16.4266 2.58752 17.6744 4.879 17.6744H12.3535C14.645 17.6744 15.9069 16.4496 15.9069 14.2262L15.9069 7.86862ZM12.5498 13.4292C12.9157 13.4292 13.2126 13.7262 13.2126 14.092C13.2126 14.4579 12.9157 14.7548 12.5498 14.7548C12.184 14.7548 11.8835 14.4579 11.8835 14.092C11.8835 13.7262 12.176 13.4292 12.5419 13.4292H12.5498ZM8.62834 13.4292C8.9942 13.4292 9.29113 13.7262 9.29113 14.092C9.29113 14.4579 8.9942 14.7548 8.62834 14.7548C8.26249 14.7548 7.96202 14.4579 7.96202 14.092C7.96202 13.7262 8.25453 13.4292 8.62039 13.4292H8.62834ZM4.69863 13.4292C5.06449 13.4292 5.36142 13.7262 5.36142 14.092C5.36142 14.4579 5.06449 14.7548 4.69863 14.7548C4.33277 14.7548 4.03143 14.4579 4.03143 14.092C4.03143 13.7262 4.32482 13.4292 4.69068 13.4292H4.69863ZM12.5498 9.99448C12.9157 9.99448 13.2126 10.2914 13.2126 10.6573C13.2126 11.0231 12.9157 11.3201 12.5498 11.3201C12.184 11.3201 11.8835 11.0231 11.8835 10.6573C11.8835 10.2914 12.176 9.99448 12.5419 9.99448H12.5498ZM8.62834 9.99448C8.9942 9.99448 9.29113 10.2914 9.29113 10.6573C9.29113 11.0231 8.9942 11.3201 8.62834 11.3201C8.26249 11.3201 7.96202 11.0231 7.96202 10.6573C7.96202 10.2914 8.25453 9.99448 8.62039 9.99448H8.62834ZM4.69863 9.99448C5.06449 9.99448 5.36142 10.2914 5.36142 10.6573C5.36142 11.0231 5.06449 11.3201 4.69863 11.3201C4.33277 11.3201 4.03143 11.0231 4.03143 10.6573C4.03143 10.2914 4.32482 9.99448 4.69068 9.99448H4.69863ZM11.5263 2.72096H5.71323L5.71349 3.5711C5.71349 3.93696 5.41657 4.23389 5.05071 4.23389C4.68485 4.23389 4.38792 3.93696 4.38792 3.5711L4.38745 2.74103C2.40772 2.90733 1.32558 4.10739 1.32558 6.16225V6.54304H15.9069L15.9069 6.16225C15.9104 5.07086 15.617 4.22249 15.0347 3.63923C14.5235 3.12651 13.7761 2.82029 12.8531 2.74145L12.8523 3.5711C12.8523 3.93696 12.5554 4.23389 12.1895 4.23389C11.8237 4.23389 11.5268 3.93696 11.5268 3.5711L11.5263 2.72096Z" fill="#929292"/>
</svg>
