<svg width="17" height="21" viewBox="0 0 17 21" fill="none" xmlns="http://www.w3.org/2000/svg">
<path d="M13.7528 12.3919C14.0482 12.3919 14.3408 12.4501 14.6138 12.5633C14.8868 12.6764 15.1348 12.8421 15.3437 13.0511C15.5526 13.2601 15.7183 13.5082 15.8313 13.7812C15.9442 14.0543 16.0023 14.3469 16.0022 14.6424V15.5606C16.0019 16.1338 15.8225 16.6926 15.4891 17.1589C13.9438 19.3233 11.4183 20.3945 7.9976 20.3945C4.57592 20.3945 2.05241 19.3223 0.510102 17.1579C0.178162 16.6918 -0.000150884 16.1338 9.57982e-08 15.5616V14.6414C-1.39965e-07 14.0451 0.23672 13.4733 0.658141 13.0515C1.07956 12.6297 1.6512 12.3925 2.24745 12.3919H13.7518H13.7528ZM7.9976 0.394531C8.65434 0.394531 9.30465 0.523886 9.9114 0.77521C10.5182 1.02653 11.0695 1.3949 11.5338 1.85929C11.9982 2.32368 12.3666 2.87498 12.6179 3.48173C12.8692 4.08848 12.9986 4.73879 12.9986 5.39553C12.9986 6.05227 12.8692 6.70258 12.6179 7.30933C12.3666 7.91608 11.9982 8.46739 11.5338 8.93177C11.0695 9.39616 10.5182 9.76453 9.9114 10.0159C9.30465 10.2672 8.65434 10.3965 7.9976 10.3965C6.67125 10.3965 5.39923 9.86964 4.46136 8.93177C3.52349 7.9939 2.9966 6.72188 2.9966 5.39553C2.9966 4.06918 3.52349 2.79716 4.46136 1.85929C5.39923 0.921421 6.67125 0.394531 7.9976 0.394531Z" fill="#ACACAC"/>
</svg>
