<svg width="24" height="25" viewBox="0 0 24 25" fill="none" xmlns="http://www.w3.org/2000/svg">
<path d="M22 10.1005H2M2 8.28241L2 15.9588C2 17.0902 2 17.6558 2.21799 18.088C2.40973 18.4681 2.71569 18.7771 3.09202 18.9708C3.51984 19.191 4.07989 19.191 5.2 19.191L18.8 19.191C19.9201 19.191 20.4802 19.191 20.908 18.9708C21.2843 18.7771 21.5903 18.4681 21.782 18.088C22 17.6558 22 17.0902 22 15.9588V8.28241C22 7.15105 22 6.58537 21.782 6.15325C21.5903 5.77314 21.2843 5.4641 20.908 5.27043C20.4802 5.05025 19.9201 5.05025 18.8 5.05025L5.2 5.05025C4.0799 5.05025 3.51984 5.05025 3.09202 5.27043C2.7157 5.4641 2.40973 5.77314 2.21799 6.15325C2 6.58537 2 7.15105 2 8.28241Z" stroke="#8D8D8D" stroke-width="1.5" stroke-linecap="round" stroke-linejoin="round"/>
</svg>
