<svg width="17" height="19" viewBox="0 0 17 19" fill="none" xmlns="http://www.w3.org/2000/svg">
<path fill-rule="evenodd" clip-rule="evenodd" d="M14.83 6.84149C15.2014 6.87206 15.4783 7.19669 15.4486 7.56808C15.4433 7.62923 14.9559 13.6641 14.6753 16.1954C14.5008 17.7664 13.4631 18.7223 11.8966 18.7511C10.6979 18.7718 9.5415 18.7835 8.41115 18.7835C7.19268 18.7835 6.00477 18.77 4.82946 18.7457C3.32592 18.716 2.28549 17.7412 2.11554 16.2017C1.83227 13.6479 1.34758 7.62833 1.34308 7.56808C1.31251 7.19669 1.58948 6.87116 1.96087 6.84149C2.32686 6.83159 2.65778 7.08878 2.68746 7.45927C2.69033 7.4983 2.88847 9.9565 3.1044 12.3887L3.14777 12.874C3.25653 14.083 3.36677 15.2446 3.45631 16.0534C3.55253 16.9283 4.02463 17.3797 4.85734 17.3968C7.10545 17.4445 9.39942 17.4472 11.8723 17.4022C12.7572 17.3851 13.2356 16.9427 13.3345 16.0471C13.6133 13.5346 14.0989 7.52042 14.1043 7.45927C14.134 7.08878 14.4622 6.8298 14.83 6.84149ZM10.2985 0.798828C11.124 0.798828 11.8497 1.35546 12.0628 2.15309L12.2912 3.28704C12.365 3.65876 12.6912 3.93023 13.069 3.93619L16.02 3.9363C16.3923 3.9363 16.6945 4.23844 16.6945 4.61073C16.6945 4.98302 16.3923 5.28516 16.02 5.28516L13.0953 5.28503C13.0908 5.28512 13.0862 5.28516 13.0817 5.28516L13.0597 5.28426L3.7306 5.28505C3.72335 5.28513 3.71609 5.28516 3.70882 5.28516L3.69497 5.28426L0.770625 5.28516C0.398338 5.28516 0.0961914 4.98302 0.0961914 4.61073C0.0961914 4.23844 0.398338 3.9363 0.770625 3.9363L3.72105 3.9354L3.81189 3.92965C4.15027 3.88574 4.43149 3.62875 4.50016 3.28704L4.71867 2.19356C4.94079 1.35546 5.66648 0.798828 6.49198 0.798828H10.2985ZM10.2985 2.1477H6.49198C6.27617 2.1477 6.08642 2.29247 6.03157 2.5002L5.82205 3.55232C5.79542 3.68558 5.75664 3.81401 5.70702 3.93654H11.0837C11.034 3.81401 10.9952 3.68558 10.9684 3.55232L10.7499 2.45883C10.704 2.29247 10.5143 2.1477 10.2985 2.1477Z" fill="#EA4335"/>
</svg>
