<svg width="17" height="13" viewBox="0 0 17 13" fill="none" xmlns="http://www.w3.org/2000/svg">
<path d="M1.41675 4.375H11.3334M1.41675 4.375V1.96667C1.41675 1.85395 1.46152 1.74585 1.54123 1.66615C1.62093 1.58644 1.72903 1.54167 1.84175 1.54167H15.1584C15.2711 1.54167 15.3792 1.58644 15.4589 1.66615C15.5386 1.74585 15.5834 1.85395 15.5834 1.96667V11.0333C15.5834 11.1461 15.5386 11.2542 15.4589 11.3339C15.3792 11.4136 15.2711 11.4583 15.1584 11.4583H1.84175C1.72903 11.4583 1.62093 11.4136 1.54123 11.3339C1.46152 11.2542 1.41675 11.1461 1.41675 11.0333V4.375Z" stroke="#134BC8" stroke-width="1.5" stroke-linecap="round" stroke-linejoin="round"/>
<path d="M13.0333 6.5H11.05C10.8153 6.5 10.625 6.69028 10.625 6.925V8.90833C10.625 9.14305 10.8153 9.33333 11.05 9.33333H13.0333C13.2681 9.33333 13.4583 9.14305 13.4583 8.90833V6.925C13.4583 6.69028 13.2681 6.5 13.0333 6.5Z" fill="#134BC8"/>
</svg>
