<svg width="18" height="18" viewBox="0 0 18 18" fill="none" xmlns="http://www.w3.org/2000/svg">
<path fill-rule="evenodd" clip-rule="evenodd" d="M16.8613 15.6824C17.2336 15.6824 17.5357 15.9846 17.5357 16.3569C17.5357 16.7291 17.2336 17.0313 16.8613 17.0313H10.339C9.96676 17.0313 9.66462 16.7291 9.66462 16.3569C9.66462 15.9846 9.96676 15.6824 10.339 15.6824H16.8613ZM12.694 0.587785C12.739 0.622856 14.2434 1.79187 14.2434 1.79187C14.7901 2.1174 15.2173 2.69921 15.3791 3.38803C15.5401 4.06966 15.4232 4.77287 15.0482 5.36727C15.0457 5.37124 15.0432 5.37515 15.0345 5.38681L15.0278 5.39581C14.9669 5.47603 14.7023 5.81059 13.3669 7.48373C13.3545 7.50565 13.3404 7.52619 13.3251 7.54614C13.3026 7.57556 13.2781 7.6026 13.2519 7.62722C13.1608 7.74191 13.0646 7.86241 12.9634 7.98911L12.7585 8.24581C12.3356 8.77545 11.8339 9.40349 11.2388 10.1484L10.9334 10.5307C9.78446 11.9687 8.31301 13.8099 6.42805 16.1681C6.0153 16.6825 5.39662 16.9819 4.73208 16.99L1.45972 17.0314H1.45073C1.13869 17.0314 0.867119 16.8174 0.79428 16.5125L0.0577984 13.3912C-0.0941741 12.7447 0.0568991 12.0774 0.471451 11.5595L8.94234 0.964569C8.94594 0.960972 8.94864 0.956476 8.95223 0.952879C9.88115 -0.157689 11.5609 -0.321352 12.694 0.587785ZM7.99789 4.30469L1.52447 12.4021C1.3707 12.5945 1.31404 12.8427 1.3707 13.081L1.98308 15.6753L4.71589 15.6412C4.97577 15.6385 5.21587 15.5225 5.37504 15.3246C6.19468 14.2991 7.22483 13.0102 8.28396 11.6848L8.65868 11.2159L9.03403 10.7462C10.0273 9.50312 11.0086 8.27491 11.8297 7.24689L7.99789 4.30469ZM9.99086 1.81346L8.84048 3.25077L12.672 6.19214C13.4094 5.26841 13.8946 4.66001 13.9394 4.60202C14.0869 4.36282 14.1445 4.0247 14.0671 3.69917C13.988 3.36555 13.7803 3.08229 13.4808 2.90154C13.417 2.85748 11.9018 1.68127 11.855 1.6444C11.2849 1.18758 10.4531 1.26672 9.99086 1.81346Z" fill="#232323"/>
</svg>
