<svg width="19" height="18" viewBox="0 0 19 18" fill="none" xmlns="http://www.w3.org/2000/svg">
<path fill-rule="evenodd" clip-rule="evenodd" d="M17.7236 15.9577C18.0959 15.9577 18.398 16.2598 18.398 16.6321C18.398 17.0044 18.0959 17.3065 17.7236 17.3065H11.2014C10.8291 17.3065 10.5269 17.0044 10.5269 16.6321C10.5269 16.2598 10.8291 15.9577 11.2014 15.9577H17.7236ZM13.5563 0.863023C13.6013 0.898094 15.1057 2.06711 15.1057 2.06711C15.6524 2.39264 16.0796 2.97445 16.2414 3.66327C16.4024 4.3449 16.2855 5.04811 15.9105 5.64251C15.908 5.64648 15.9055 5.65039 15.8969 5.66205L15.8901 5.67105C15.8292 5.75127 15.5646 6.08583 14.2292 7.75896C14.2168 7.78089 14.2027 7.80143 14.1874 7.82138C14.1649 7.8508 14.1404 7.87784 14.1142 7.90246C14.0231 8.01714 13.9269 8.13765 13.8258 8.26435L13.6208 8.52105C13.1979 9.05068 12.6962 9.67872 12.1011 10.4236L11.7957 10.8059C10.6468 12.244 9.17532 14.0852 7.29036 16.4433C6.8776 16.9577 6.25892 17.2572 5.59438 17.2653L2.32203 17.3066H2.31303C2.001 17.3066 1.72942 17.0926 1.65658 16.7878L0.920103 13.6665C0.768131 13.0199 0.919204 12.3527 1.33376 11.8347L9.80465 1.23981C9.80824 1.23621 9.81094 1.23171 9.81454 1.22812C10.7435 0.117549 12.4232 -0.0461139 13.5563 0.863023ZM8.86019 4.57993L2.38677 12.6773C2.233 12.8697 2.17635 13.1179 2.233 13.3562L2.84539 15.9506L5.57819 15.9164C5.83808 15.9137 6.07817 15.7977 6.23734 15.5999C7.05699 14.5743 8.08714 13.2854 9.14627 11.96L9.52099 11.4911L9.89634 11.0214C10.8896 9.77836 11.8709 8.55015 12.692 7.52213L8.86019 4.57993ZM10.8532 2.08869L9.70279 3.52601L13.5343 6.46738C14.2717 5.54364 14.7569 4.93525 14.8018 4.87725C14.9492 4.63805 15.0068 4.29994 14.9294 3.97441C14.8503 3.64079 14.6426 3.35753 14.3431 3.17678C14.2793 3.13272 12.7641 1.95651 12.7173 1.91964C12.1472 1.46282 11.3154 1.54195 10.8532 2.08869Z" fill="#232323"/>
</svg>
