<svg width="23" height="21" viewBox="0 0 23 21" fill="none" xmlns="http://www.w3.org/2000/svg">
<path fill-rule="evenodd" clip-rule="evenodd" d="M16.0605 0.5C19.4759 0.5 22.0513 3.28667 22.0513 6.98205V14.0262C22.0513 15.9174 21.3826 17.6262 20.1672 18.8385C19.0769 19.9246 17.6626 20.5 16.0769 20.5H5.97128C4.38872 20.5 2.97539 19.9256 1.8841 18.8385C0.668718 17.6262 0 15.9174 0 14.0262V6.98205C0 3.28667 2.57539 0.5 5.99077 0.5H16.0605ZM16.0605 2.03846H5.99077C3.41128 2.03846 1.53846 4.11744 1.53846 6.98205V14.0262C1.53846 15.5062 2.04718 16.8282 2.97026 17.7482C3.76615 18.5431 4.80513 18.9615 5.97436 18.9615H16.0605C16.0626 18.9595 16.0708 18.9615 16.0769 18.9615C17.2472 18.9615 18.2851 18.5431 19.081 17.7482C20.0051 16.8282 20.5128 15.5062 20.5128 14.0262V6.98205C20.5128 4.11744 18.64 2.03846 16.0605 2.03846ZM17.6769 6.78595C17.9446 7.11518 17.8944 7.59928 17.5651 7.868L13.0072 11.5726C12.4308 12.0301 11.7415 12.2588 11.0533 12.2588C10.3672 12.2588 9.68308 12.0321 9.11077 11.5788L4.51077 7.87005C4.17949 7.60338 4.12821 7.11826 4.39385 6.788C4.66154 6.45877 5.14564 6.40646 5.4759 6.6721L10.0718 10.3767C10.6492 10.8342 11.4626 10.8342 12.0441 10.3726L16.5938 6.67415C16.9241 6.40441 17.4082 6.45569 17.6769 6.78595Z" fill="#134BC8"/>
</svg>
