<svg width="15" height="15" viewBox="0 0 15 15" fill="none" xmlns="http://www.w3.org/2000/svg">
<path fill-rule="evenodd" clip-rule="evenodd" d="M5.19882 7.38441C5.21256 7.39661 5.22553 7.40806 5.2385 7.42179C6.0617 8.26559 6.51564 9.38329 6.51564 10.5696V13.6092L8.22155 12.6799C8.35583 12.6067 8.43899 12.4632 8.43899 12.3053V10.5605C8.43899 9.37871 8.88836 8.26483 9.70393 7.42561L13.3942 3.50033C13.633 3.24627 13.7642 2.91287 13.7642 2.56116V1.84706C13.7642 1.49306 13.485 1.20543 13.1432 1.20543H1.79768C1.45512 1.20543 1.17589 1.49306 1.17589 1.84706V2.56116C1.17589 2.91287 1.30711 3.24627 1.54591 3.49956L5.19882 7.38441ZM6.24633 14.9389C6.09222 14.9389 5.93963 14.8977 5.80078 14.8154C5.53222 14.6551 5.37125 14.3721 5.37125 14.0578V10.5696C5.37125 9.70372 5.04853 8.88814 4.46031 8.2633C4.44276 8.24881 4.42521 8.23279 4.40995 8.216L0.712791 4.28462C0.273343 3.81771 0.0314941 3.20507 0.0314941 2.56116V1.84706C0.0314941 0.862112 0.824179 0.0610352 1.79768 0.0610352H13.1432C14.116 0.0610352 14.9086 0.862112 14.9086 1.84706V2.56116C14.9086 3.20431 14.6668 3.81618 14.2289 4.28386L10.5309 8.216C9.91831 8.84771 9.58339 9.67854 9.58339 10.5605V12.3053C9.58339 12.8821 9.27135 13.41 8.76934 13.6847L6.66289 14.8321C6.53166 14.9031 6.389 14.9389 6.24633 14.9389Z" fill="#676767"/>
</svg>
