<svg width="25" height="24" viewBox="0 0 25 24" fill="none" xmlns="http://www.w3.org/2000/svg">
<g clip-path="url(#clip0)">
<path d="M5.48248 14.5035L4.64707 17.6222L1.59368 17.6868C0.681168 15.9943 0.163574 14.0578 0.163574 12C0.163574 10.0101 0.647512 8.13362 1.50532 6.48132H1.50598L4.22436 6.9797L5.41517 9.68176C5.16593 10.4084 5.03009 11.1884 5.03009 12C5.03018 12.8809 5.18975 13.7249 5.48248 14.5035Z" fill="#FBBB00"/>
<path d="M23.954 9.7583C24.0918 10.4842 24.1637 11.2339 24.1637 12.0001C24.1637 12.8592 24.0733 13.6972 23.9013 14.5056C23.3171 17.2563 21.7907 19.6583 19.6762 21.3581L19.6756 21.3574L16.2516 21.1827L15.7671 18.1576C17.1701 17.3348 18.2666 16.0471 18.8442 14.5056H12.4275V9.7583H18.9378H23.954Z" fill="#518EF8"/>
<path d="M19.6755 21.3574L19.6762 21.358C17.6197 23.011 15.0074 24 12.1636 24C7.59375 24 3.62058 21.4457 1.59375 17.6868L5.48255 14.5035C6.49594 17.2081 9.10495 19.1334 12.1636 19.1334C13.4783 19.1334 14.71 18.778 15.7669 18.1576L19.6755 21.3574Z" fill="#28B446"/>
<path d="M19.8232 2.76262L15.9357 5.94525C14.8419 5.26153 13.5489 4.86656 12.1636 4.86656C9.0357 4.86656 6.37789 6.88017 5.41526 9.68175L1.50603 6.48131H1.50537C3.50253 2.63077 7.52581 0 12.1636 0C15.0753 0 17.7449 1.03716 19.8232 2.76262Z" fill="#F14336"/>
</g>
<defs>
<clipPath id="clip0">
<rect width="24" height="24" fill="white" transform="translate(0.163574)"/>
</clipPath>
</defs>
</svg>
