<svg width="48" height="37" viewBox="0 0 48 37" fill="none" xmlns="http://www.w3.org/2000/svg">
<rect x="0.23584" y="0.82373" width="47.3003" height="35.2987" rx="12.7075" fill="#E2EBFF"/>
<path d="M20.3645 19.6142C21.4594 19.6142 22.337 20.5003 22.337 21.603V24.2504C22.337 25.3454 21.4594 26.2385 20.3645 26.2385H17.7396C16.6524 26.2385 15.7671 25.3454 15.7671 24.2504V21.603C15.7671 20.5003 16.6524 19.6142 17.7396 19.6142H20.3645ZM29.3263 19.6142C30.4135 19.6142 31.2988 20.5003 31.2988 21.603V24.2504C31.2988 25.3454 30.4135 26.2385 29.3263 26.2385H26.7015C25.6065 26.2385 24.7289 25.3454 24.7289 24.2504V21.603C24.7289 20.5003 25.6065 19.6142 26.7015 19.6142H29.3263ZM20.3645 10.707C21.4594 10.707 22.337 11.6001 22.337 12.6959V15.3432C22.337 16.446 21.4594 17.3313 20.3645 17.3313H17.7396C16.6524 17.3313 15.7671 16.446 15.7671 15.3432V12.6959C15.7671 11.6001 16.6524 10.707 17.7396 10.707H20.3645ZM29.3263 10.707C30.4135 10.707 31.2988 11.6001 31.2988 12.6959V15.3432C31.2988 16.446 30.4135 17.3313 29.3263 17.3313H26.7015C25.6065 17.3313 24.7289 16.446 24.7289 15.3432V12.6959C24.7289 11.6001 25.6065 10.707 26.7015 10.707H29.3263Z" fill="#144CC9"/>
</svg>
