<svg width="23" height="22" viewBox="0 0 23 22" fill="none" xmlns="http://www.w3.org/2000/svg">
<path fill-rule="evenodd" clip-rule="evenodd" d="M11.3138 1.14865C13.1112 0.0122902 15.4989 -0.301647 17.5616 0.35939C22.0485 1.80637 23.4413 6.69782 22.1955 10.59C20.2732 16.7029 12.0633 21.2627 11.7151 21.454C11.5913 21.5225 11.4542 21.5568 11.3172 21.5568C11.1801 21.5568 11.0441 21.5236 10.9203 21.4562C10.5743 21.2672 2.42412 16.7748 0.437695 10.5911C0.43659 10.5911 0.43659 10.59 0.43659 10.59C-0.810315 6.69672 0.578083 1.80416 5.06053 0.35939C7.16524 -0.321544 9.45897 -0.0219776 11.3138 1.14865ZM5.56902 1.93792C1.94216 3.10745 1.0313 7.00845 2.01622 10.0848C3.56601 14.9066 9.68889 18.8054 11.3161 19.7704C12.9488 18.7955 19.1159 14.8536 20.6159 10.0892C21.6008 7.00955 20.6866 3.10855 17.0543 1.93792C15.2944 1.37305 13.2417 1.71684 11.8245 2.81341C11.5283 3.04112 11.1171 3.04554 10.8186 2.82004C9.31747 1.69141 7.35647 1.36089 5.56902 1.93792ZM15.9931 4.13316C17.4997 4.62064 18.5554 5.95488 18.6847 7.5323C18.7212 7.98884 18.3819 8.389 17.9253 8.42547C17.9021 8.42768 17.88 8.42879 17.8568 8.42879C17.429 8.42879 17.0664 8.10048 17.031 7.66716C16.9581 6.75851 16.3501 5.99136 15.4846 5.71169C15.0479 5.57019 14.8092 5.1026 14.9495 4.66818C15.0921 4.23264 15.5553 3.99609 15.9931 4.13316Z" fill="white"/>
</svg>
