<svg width="17" height="19" viewBox="0 0 17 19" fill="none" xmlns="http://www.w3.org/2000/svg">
<path d="M6.51679 17.0777C7.11733 17.6077 7.90618 17.9294 8.77016 17.9294C9.63413 17.9294 10.423 17.6077 11.0235 17.0777M13.8802 6.00599C13.8802 4.65073 13.3418 3.35098 12.3835 2.39267C11.4252 1.43436 10.1254 0.895981 8.77016 0.895981C7.4149 0.895981 6.11514 1.43436 5.15683 2.39267C4.19852 3.35098 3.66014 4.65073 3.66014 6.00599C3.66014 8.63781 2.99624 10.4397 2.2546 11.6316C1.62902 12.637 1.31623 13.1397 1.3277 13.2799C1.3404 13.4352 1.37329 13.4944 1.49841 13.5872C1.61142 13.671 2.12083 13.671 3.13965 13.671H14.4007C15.4195 13.671 15.9289 13.671 16.0419 13.5872C16.167 13.4944 16.1999 13.4352 16.2126 13.2799C16.2241 13.1397 15.9113 12.637 15.2857 11.6316C14.5441 10.4397 13.8802 8.63781 13.8802 6.00599Z" stroke="#134BC8" stroke-width="1.41945" stroke-linecap="round" stroke-linejoin="round"/>
</svg>
