<svg width="24" height="25" viewBox="0 0 24 25" fill="none" xmlns="http://www.w3.org/2000/svg">
<path d="M2.5 12.3618H5.88197C6.56717 12.3618 7.19357 12.7528 7.5 13.3719C7.80643 13.9909 8.43283 14.3819 9.11803 14.3819H14.882C15.5672 14.3819 16.1936 13.9909 16.5 13.3719C16.8064 12.7528 17.4328 12.3618 18.118 12.3618H21.5M8.96656 4.2814H15.0334C16.1103 4.2814 16.6487 4.2814 17.1241 4.44701C17.5445 4.59347 17.9274 4.83248 18.2451 5.14676C18.6043 5.50215 18.8451 5.98859 19.3267 6.96144L21.4932 11.3381C21.6822 11.7199 21.7767 11.9108 21.8434 12.1109C21.9026 12.2885 21.9453 12.4714 21.971 12.657C22 12.866 22 13.0795 22 13.5063V15.594C22 17.291 22 18.1395 21.673 18.7877C21.3854 19.3579 20.9265 19.8214 20.362 20.1119C19.7202 20.4422 18.8802 20.4422 17.2 20.4422H6.8C5.11984 20.4422 4.27976 20.4422 3.63803 20.1119C3.07354 19.8214 2.6146 19.3579 2.32698 18.7877C2 18.1395 2 17.291 2 15.594V13.5063C2 13.0795 2 12.866 2.02897 12.657C2.05471 12.4714 2.09744 12.2885 2.15662 12.1109C2.22326 11.9108 2.31776 11.7199 2.50675 11.3381L4.67331 6.96144C5.1549 5.98858 5.3957 5.50215 5.75495 5.14676C6.07263 4.83248 6.45551 4.59347 6.87589 4.44701C7.35125 4.2814 7.88969 4.2814 8.96656 4.2814Z" stroke="#535353" stroke-width="1.5" stroke-linecap="round" stroke-linejoin="round"/>
</svg>
