<svg width="20" height="17" viewBox="0 0 20 17" fill="none" xmlns="http://www.w3.org/2000/svg">
<path d="M2.2546 0.291016C1.65664 0.291016 1.08317 0.528553 0.660356 0.951371C0.237537 1.37419 0 1.94766 0 2.54561V14.4335C0 15.0314 0.237537 15.6049 0.660356 16.0277C1.08317 16.4505 1.65664 16.6881 2.2546 16.6881H17.4186C18.0166 16.6881 18.59 16.4505 19.0128 16.0277C19.4357 15.6049 19.6732 15.0314 19.6732 14.4335V2.54561C19.6732 1.94766 19.4357 1.37419 19.0128 0.951371C18.59 0.528553 18.0166 0.291016 17.4186 0.291016H2.25542H2.2546ZM10.6548 6.64488C10.6548 6.4818 10.7196 6.3254 10.8349 6.21008C10.9502 6.09477 11.1066 6.02999 11.2697 6.02999H15.7789C15.942 6.02999 16.0984 6.09477 16.2137 6.21008C16.329 6.3254 16.3938 6.4818 16.3938 6.64488C16.3938 6.80796 16.329 6.96435 16.2137 7.07967C16.0984 7.19498 15.942 7.25977 15.7789 7.25977H11.2697C11.1066 7.25977 10.9502 7.19498 10.8349 7.07967C10.7196 6.96435 10.6548 6.80796 10.6548 6.64488ZM11.2697 9.3094H15.7789C15.942 9.3094 16.0984 9.37418 16.2137 9.4895C16.329 9.60481 16.3938 9.76121 16.3938 9.92429C16.3938 10.0874 16.329 10.2438 16.2137 10.3591C16.0984 10.4744 15.942 10.5392 15.7789 10.5392H11.2697C11.1066 10.5392 10.9502 10.4744 10.8349 10.3591C10.7196 10.2438 10.6548 10.0874 10.6548 9.92429C10.6548 9.76121 10.7196 9.60481 10.8349 9.4895C10.9502 9.37418 11.1066 9.3094 11.2697 9.3094ZM7.58036 6.64488C7.58036 7.02539 7.4292 7.39033 7.16014 7.65939C6.89107 7.92846 6.52614 8.07962 6.14562 8.07962C5.7651 8.07962 5.40017 7.92846 5.1311 7.65939C4.86204 7.39033 4.71088 7.02539 4.71088 6.64488C4.71088 6.26436 4.86204 5.89943 5.1311 5.63036C5.40017 5.36129 5.7651 5.21013 6.14562 5.21013C6.52614 5.21013 6.89107 5.36129 7.16014 5.63036C7.4292 5.89943 7.58036 6.26436 7.58036 6.64488ZM4.09599 8.89947H8.19525C8.41269 8.89947 8.62122 8.98585 8.77497 9.1396C8.92873 9.29335 9.0151 9.50189 9.0151 9.71933V10.1293C9.0151 10.1293 8.60518 12.1789 6.14562 12.1789C3.68606 12.1789 3.27613 10.1293 3.27613 10.1293V9.71933C3.27613 9.50189 3.36251 9.29335 3.51626 9.1396C3.67001 8.98585 3.87855 8.89947 4.09599 8.89947Z" fill="#ACACAC"/>
</svg>
