<svg width="19" height="23" viewBox="0 0 19 23" fill="none" xmlns="http://www.w3.org/2000/svg">
<path d="M3.25 5.25C2.58696 5.25 1.95107 5.51339 1.48223 5.98223C1.01339 6.45107 0.75 7.08696 0.75 7.75V15.25C0.75 15.913 1.01339 16.5489 1.48223 17.0178C1.95107 17.4866 2.58696 17.75 3.25 17.75H10.75C11.413 17.75 12.0489 17.4866 12.5178 17.0178C12.9866 16.5489 13.25 15.913 13.25 15.25V13.9637L16.8013 16.2725C16.9427 16.3645 17.1063 16.4166 17.2749 16.4234C17.4435 16.4302 17.6108 16.3913 17.7591 16.3109C17.9075 16.2306 18.0314 16.1116 18.1178 15.9667C18.2042 15.8218 18.2499 15.6562 18.25 15.4875V7.51375C18.2502 7.34472 18.2047 7.17878 18.1184 7.03348C18.032 6.88819 17.908 6.76894 17.7594 6.68837C17.6108 6.6078 17.4432 6.5689 17.2743 6.57579C17.1054 6.58268 16.9415 6.6351 16.8 6.7275L13.25 9.04V7.75C13.25 7.08696 12.9866 6.45107 12.5178 5.98223C12.0489 5.51339 11.413 5.25 10.75 5.25H3.25ZM13.25 10.53L17 8.09V14.9112L13.25 12.4737V10.53ZM12 7.75V15.25C12 15.5815 11.8683 15.8995 11.6339 16.1339C11.3995 16.3683 11.0815 16.5 10.75 16.5H3.25C2.91848 16.5 2.60054 16.3683 2.36612 16.1339C2.1317 15.8995 2 15.5815 2 15.25V7.75C2 7.41848 2.1317 7.10053 2.36612 6.86611C2.60054 6.63169 2.91848 6.5 3.25 6.5H10.75C11.0815 6.5 11.3995 6.63169 11.6339 6.86611C11.8683 7.10053 12 7.41848 12 7.75ZM5.615 1.5375C5.25109 1.66824 4.89616 1.82274 4.5525 2C4.42838 2.06476 4.30664 2.13398 4.1875 2.2075L4.165 2.2225L4.1575 2.2275L4.155 2.22875L4.15375 2.23L4.5 2.75L4.15375 2.23C4.01567 2.32183 3.91973 2.46475 3.88703 2.62732C3.85433 2.78989 3.88754 2.95879 3.97937 3.09687C4.07121 3.23495 4.21413 3.33089 4.3767 3.3636C4.53927 3.3963 4.70817 3.36308 4.84625 3.27125L4.855 3.265L4.90625 3.23375C4.95375 3.205 5.03 3.16125 5.13125 3.10875C5.33375 3.0025 5.64 2.85875 6.04125 2.7125C7.15123 2.31702 8.32169 2.1182 9.5 2.125C10.9788 2.125 12.1562 2.42 12.9587 2.7125C13.3588 2.85875 13.6663 3.0025 13.8687 3.10875C13.9622 3.15767 14.0539 3.20979 14.1438 3.265L14.1537 3.27L14.4812 2.77875L14.1537 3.27C14.222 3.31836 14.2992 3.35255 14.3808 3.37053C14.4625 3.38851 14.547 3.38993 14.6292 3.37469C14.7114 3.35945 14.7897 3.32786 14.8595 3.28181C14.9293 3.23575 14.9891 3.17616 15.0355 3.10655C15.0818 3.03695 15.1137 2.95876 15.1293 2.87661C15.1449 2.79445 15.1438 2.71001 15.1262 2.62827C15.1085 2.54653 15.0747 2.46917 15.0266 2.40076C14.9785 2.33235 14.9172 2.27428 14.8463 2.23L14.5 2.75L14.8463 2.23L14.845 2.22875L14.8425 2.2275L14.835 2.2225L14.8112 2.2075C14.6921 2.13397 14.5704 2.06476 14.4462 2C14.103 1.82278 13.7485 1.66828 13.385 1.5375C12.1384 1.0924 10.8237 0.868203 9.5 0.874997C8.17633 0.868203 6.86161 1.0924 5.615 1.5375ZM4.84625 3.27125C4.845 3.27125 4.84625 3.27125 4.84625 3.27125V3.27125ZM5.615 21.4625C6.53125 21.7962 7.8525 22.125 9.5 22.125C10.8237 22.1318 12.1384 21.9076 13.385 21.4625C13.8438 21.2962 14.2013 21.1275 14.4475 21C14.5712 20.9352 14.6925 20.866 14.8112 20.7925L14.835 20.7775L14.8425 20.7725L14.845 20.7712C14.845 20.7712 14.8462 20.77 14.5 20.25L14.8463 20.77C14.9789 20.676 15.0696 20.5339 15.0993 20.3741C15.1289 20.2142 15.0951 20.0491 15.005 19.9138C14.9149 19.7784 14.7756 19.6835 14.6166 19.6492C14.4577 19.6149 14.2917 19.6439 14.1537 19.73L14.4812 20.2212L14.1537 19.73L14.1438 19.7362C14.0539 19.7915 13.9622 19.8436 13.8687 19.8925C13.5744 20.0439 13.2704 20.1759 12.9587 20.2875C11.8488 20.683 10.6783 20.8818 9.5 20.875C8.32169 20.8818 7.15124 20.683 6.04125 20.2875C5.7296 20.1754 5.42562 20.043 5.13125 19.8912C5.03781 19.8423 4.94609 19.7902 4.85625 19.735L4.84625 19.7287C4.77788 19.6833 4.70122 19.6517 4.62066 19.6359C4.54009 19.62 4.4572 19.6202 4.3767 19.6364C4.2962 19.6526 4.21968 19.6845 4.15151 19.7302C4.08334 19.776 4.02485 19.8348 3.97937 19.9031C3.9339 19.9715 3.90235 20.0481 3.8865 20.1287C3.87066 20.2093 3.87083 20.2922 3.88703 20.3727C3.90322 20.4532 3.93511 20.5297 3.98087 20.5979C4.02664 20.666 4.08538 20.7245 4.15375 20.77L4.5 20.25L4.15375 20.77L4.155 20.7712L4.1575 20.7725L4.165 20.7775L4.1875 20.7925L4.26625 20.84C4.69719 21.0845 5.14795 21.2923 5.61375 21.4612L5.615 21.4625ZM4.84625 19.73C4.845 19.73 4.84625 19.73 4.84625 19.73V19.73Z" fill="#929292"/>
</svg>
