<svg width="20" height="21" viewBox="0 0 20 21" fill="none" xmlns="http://www.w3.org/2000/svg">
<path fill-rule="evenodd" clip-rule="evenodd" d="M2.30159 3.48659C2.30354 3.48659 2.25476 3.53732 2.1933 3.59781C1.95721 3.82708 1.46843 4.30414 1.46351 5.30218C1.45575 6.69825 2.37379 9.29041 6.79421 13.7099C11.1941 18.1078 13.7824 19.0366 15.1814 19.0366H15.2019C16.1999 19.0317 16.676 18.542 16.9063 18.3069C16.9765 18.2347 17.0331 18.182 17.0731 18.1488C18.0448 17.1713 18.5423 16.4435 18.5375 15.9771C18.5306 15.501 17.9384 14.9381 17.1199 14.1596C16.8594 13.9118 16.5765 13.6425 16.278 13.344C15.5043 12.5723 15.1209 12.704 14.278 13.0006C13.1122 13.4094 11.5122 13.9655 9.02637 11.4787C6.53665 8.9909 7.09372 7.39288 7.50152 6.22704C7.79615 5.38412 7.93078 4.99974 7.15615 4.22512C6.85274 3.92268 6.58055 3.63586 6.32983 3.37245C5.55618 2.5588 4.99814 1.97052 4.52497 1.96369H4.51717C4.04986 1.96369 3.32402 2.46319 2.29672 3.49049C2.29964 3.48757 2.30062 3.48659 2.30159 3.48659ZM15.1824 20.5C12.7512 20.5 9.58148 18.5644 5.76008 14.745C1.92404 10.9099 -0.0144704 7.73043 8.13183e-05 5.29437C0.00894391 3.68464 0.852834 2.86026 1.1699 2.551C1.18649 2.53051 1.24307 2.4749 1.26258 2.45539C2.66159 1.05541 3.60499 0.489564 4.54351 0.500145C5.63325 0.514929 6.40885 1.33053 7.3903 2.36368C7.63322 2.61929 7.89663 2.89733 8.19029 3.19001C9.61466 4.61438 9.20881 5.77631 8.88296 6.70898C8.52784 7.72653 8.22053 8.60457 10.0605 10.4445C11.9024 12.2845 12.7805 11.9772 13.7941 11.6192C14.7277 11.2933 15.8868 10.8855 17.3131 12.3099C17.6019 12.5987 17.876 12.8591 18.1287 13.1001C19.1667 14.0864 19.9862 14.8659 20 15.9586C20.0116 16.8903 19.4457 17.8396 18.0487 19.2376L17.4302 18.8181L17.9531 19.3293C17.6438 19.6464 16.8204 20.4912 15.2097 20.5H15.1824Z" fill="#134BC8"/>
</svg>
