<svg width="27" height="20" viewBox="0 0 27 20" fill="none" xmlns="http://www.w3.org/2000/svg">
<path d="M2.39722 5.42269C2.38836 5.41293 2.37965 5.40303 2.37109 5.393L2.37703 5.39419L2.33072 5.34135C2.30769 5.31421 2.28373 5.28787 2.25888 5.26238C2.01155 5.0144 1.70961 4.82774 1.37722 4.71735L0.286568 4.36113C0.223963 4.33872 0.167373 4.30217 0.121199 4.25432C0.0750261 4.20647 0.0405151 4.14862 0.0203515 4.08525C0.00018793 4.02189 -0.00508448 3.95473 0.0049445 3.889C0.0149735 3.82326 0.0400334 3.76073 0.0781744 3.70626C0.12993 3.63389 0.202679 3.57917 0.286568 3.54952L1.37722 3.19329C1.70474 3.08046 2.00179 2.89354 2.24523 2.64708C2.29688 2.58771 2.34556 2.52596 2.39069 2.46243C2.55284 2.26348 2.68121 2.03923 2.77066 1.79866L3.13401 0.681888C3.16393 0.59804 3.21898 0.525458 3.29165 0.474034C3.36433 0.422611 3.45109 0.394849 3.54011 0.394531C3.62917 0.394531 3.71645 0.421842 3.78947 0.473495C3.81085 0.491307 3.83103 0.511493 3.84884 0.532866C3.8904 0.57502 3.92306 0.626079 3.94384 0.681294L4.30066 1.77076C4.41133 2.10198 4.59751 2.40293 4.8445 2.64982C5.09149 2.8967 5.39252 3.08276 5.72379 3.19329L6.81503 3.54952L6.837 3.55427C6.92069 3.58418 6.99313 3.63916 7.04444 3.71172C7.09576 3.78429 7.12345 3.8709 7.12376 3.95978C7.12423 4.04899 7.09678 4.13611 7.04525 4.20893C6.99371 4.28176 6.92069 4.33664 6.83641 4.36588L5.74516 4.7221C5.4138 4.83312 5.11292 5.01995 4.86647 5.26773C4.61926 5.51441 4.43286 5.81524 4.32203 6.14642L3.96581 7.23648L3.95571 7.2632C3.93053 7.30976 3.89691 7.35123 3.85656 7.3855C3.84944 7.3934 3.84308 7.40194 3.83756 7.41103C3.82925 7.4235 3.82094 7.43597 3.80788 7.44487C3.71622 7.5088 3.60342 7.53485 3.49301 7.51759C3.3826 7.50033 3.28313 7.4411 3.21535 7.35225C3.1884 7.31624 3.16735 7.27615 3.15301 7.23351L2.79679 6.14405C2.7169 5.90185 2.59644 5.67499 2.44056 5.47315C2.42669 5.45567 2.41203 5.43883 2.39662 5.42269H2.39722ZM16.7657 5.00234C17.2641 5.50037 17.6036 6.13509 17.7412 6.82615C17.8788 7.51721 17.8082 8.23355 17.5385 8.88452C17.2688 9.53548 16.8121 10.0918 16.2261 10.4831C15.6401 10.8743 14.9512 11.083 14.2465 11.0826C13.302 11.0822 12.3962 10.7069 11.7282 10.039C11.0602 9.37119 10.6847 8.46544 10.6843 7.52087C10.6842 7.05307 10.7763 6.58984 10.9553 6.15764C11.1343 5.72544 11.3967 5.33275 11.7275 5.00199C12.0583 4.67124 12.451 4.4089 12.8833 4.22997C13.3155 4.05104 13.7787 3.95903 14.2465 3.95918C15.1917 3.95918 16.0977 4.33441 16.7663 5.00234H16.7657ZM23.8961 0.3975H5.0992L5.42456 1.39969C5.47648 1.55605 5.56386 1.69828 5.67985 1.81529C5.69528 1.82956 5.71175 1.84266 5.72913 1.85447C5.74219 1.86338 5.75466 1.87228 5.76594 1.88297H23.8961C24.093 1.88297 24.2817 1.96116 24.4209 2.10034C24.5601 2.23952 24.6383 2.42828 24.6383 2.62511V17.1687C24.6383 17.3655 24.5601 17.5543 24.4209 17.6935C24.2817 17.8327 24.093 17.9108 23.8961 17.9108H20.1854V14.1995C20.1854 13.6878 19.9821 13.197 19.6203 12.8351C19.2584 12.4733 18.7676 12.27 18.2559 12.27H10.2378C9.72604 12.27 9.23524 12.4733 8.87338 12.8351C8.51151 13.197 8.30822 13.6878 8.30822 14.1995V17.9091H4.59752C4.50001 17.9091 4.40344 17.89 4.31333 17.8527C4.22322 17.8155 4.14134 17.7608 4.07236 17.6919C4.00338 17.623 3.94866 17.5411 3.91133 17.4511C3.874 17.361 3.85478 17.2644 3.85478 17.1669V8.6792C3.75703 8.69895 3.65764 8.70949 3.55792 8.71067C3.22312 8.71135 2.89645 8.60758 2.62342 8.41381C2.53017 8.34162 2.44533 8.25917 2.3705 8.16801V17.1681C2.37042 17.4605 2.42796 17.7501 2.53982 18.0202C2.65168 18.2904 2.81567 18.5358 3.02243 18.7426C3.22919 18.9494 3.47466 19.1134 3.74481 19.2252C4.01497 19.3371 4.30452 19.3946 4.59692 19.3945H23.8961C24.1886 19.3945 24.4782 19.3369 24.7484 19.2249C25.0186 19.113 25.2641 18.9489 25.4709 18.742C25.6776 18.5351 25.8416 18.2896 25.9534 18.0193C26.0653 17.749 26.1227 17.4594 26.1226 17.1669V2.62333C26.1226 2.33096 26.0651 2.04144 25.9532 1.77131C25.8414 1.50119 25.6774 1.25576 25.4706 1.04905C25.2638 0.842336 25.0184 0.678397 24.7482 0.566602C24.4781 0.454806 24.1885 0.397344 23.8961 0.3975ZM6.14414 8.55986C6.3353 8.49395 6.50868 8.38481 6.65078 8.24096C6.79289 8.0971 6.89989 7.9224 6.96346 7.73045L7.17067 7.09517C7.18821 7.04648 7.2204 7.00441 7.26282 6.97474C7.30523 6.94508 7.3558 6.92929 7.40756 6.92953C7.45949 6.9295 7.51014 6.94569 7.55242 6.97584C7.59463 7.00496 7.62678 7.04644 7.64445 7.09458L7.85106 7.73045C7.91526 7.92398 8.02387 8.0998 8.1682 8.24383C8.31254 8.38785 8.48859 8.49609 8.68226 8.55986L9.31753 8.76648L9.33059 8.77004C9.37918 8.78768 9.42112 8.81991 9.45067 8.86232C9.48022 8.90473 9.49593 8.95524 9.49565 9.00693C9.49581 9.05852 9.48004 9.1089 9.4505 9.15119C9.42096 9.19348 9.37909 9.22563 9.33059 9.24323L8.69413 9.45043C8.50053 9.51446 8.32454 9.62278 8.18014 9.76676C8.03574 9.91075 7.92693 10.0864 7.86234 10.2799L7.65454 10.9151C7.63694 10.9636 7.6048 11.0055 7.56251 11.035C7.52021 11.0646 7.46983 11.0803 7.41825 11.0802C7.36631 11.0802 7.31567 11.064 7.27338 11.0339C7.23115 11.0048 7.19899 10.9633 7.18135 10.9151L6.97474 10.2799C6.91107 10.0856 6.80268 9.90908 6.65831 9.7644C6.51394 9.61973 6.33762 9.51096 6.14354 9.44687L5.50827 9.24026C5.45907 9.22295 5.41644 9.19083 5.38624 9.1483C5.35605 9.10577 5.33977 9.05493 5.33966 9.00277C5.33945 8.95077 5.35554 8.9 5.38568 8.85762C5.41582 8.81523 5.45849 8.78336 5.50768 8.76648L6.14414 8.55986Z" fill="#ACACAC"/>
</svg>
