<svg width="19" height="20" viewBox="0 0 19 20" fill="none" xmlns="http://www.w3.org/2000/svg">
<path d="M19 6.20009V15.964C19 16.8738 18.6386 17.7464 17.9952 18.3897C17.3519 19.0331 16.4793 19.3945 15.5694 19.3945H3.43056C2.52072 19.3945 1.64814 19.0331 1.00479 18.3897C0.361432 17.7464 0 16.8738 0 15.964V6.20009H19ZM4.48611 13.0612C4.13617 13.0612 3.80057 13.2002 3.55312 13.4477C3.30568 13.6951 3.16667 14.0307 3.16667 14.3806C3.16667 14.7306 3.30568 15.0662 3.55312 15.3136C3.80057 15.5611 4.13617 15.7001 4.48611 15.7001C4.83605 15.7001 5.17166 15.5611 5.4191 15.3136C5.66654 15.0662 5.80556 14.7306 5.80556 14.3806C5.80556 14.0307 5.66654 13.6951 5.4191 13.4477C5.17166 13.2002 4.83605 13.0612 4.48611 13.0612ZM9.5 13.0612C9.15006 13.0612 8.81446 13.2002 8.56701 13.4477C8.31957 13.6951 8.18056 14.0307 8.18056 14.3806C8.18056 14.7306 8.31957 15.0662 8.56701 15.3136C8.81446 15.5611 9.15006 15.7001 9.5 15.7001C9.84994 15.7001 10.1855 15.5611 10.433 15.3136C10.6804 15.0662 10.8194 14.7306 10.8194 14.3806C10.8194 14.0307 10.6804 13.6951 10.433 13.4477C10.1855 13.2002 9.84994 13.0612 9.5 13.0612ZM4.48611 8.3112C4.13617 8.3112 3.80057 8.45021 3.55312 8.69765C3.30568 8.9451 3.16667 9.2807 3.16667 9.63064C3.16667 9.98058 3.30568 10.3162 3.55312 10.5636C3.80057 10.8111 4.13617 10.9501 4.48611 10.9501C4.83605 10.9501 5.17166 10.8111 5.4191 10.5636C5.66654 10.3162 5.80556 9.98058 5.80556 9.63064C5.80556 9.2807 5.66654 8.9451 5.4191 8.69765C5.17166 8.45021 4.83605 8.3112 4.48611 8.3112ZM9.5 8.3112C9.15006 8.3112 8.81446 8.45021 8.56701 8.69765C8.31957 8.9451 8.18056 9.2807 8.18056 9.63064C8.18056 9.98058 8.31957 10.3162 8.56701 10.5636C8.81446 10.8111 9.15006 10.9501 9.5 10.9501C9.84994 10.9501 10.1855 10.8111 10.433 10.5636C10.6804 10.3162 10.8194 9.98058 10.8194 9.63064C10.8194 9.2807 10.6804 8.9451 10.433 8.69765C10.1855 8.45021 9.84994 8.3112 9.5 8.3112ZM14.5139 8.3112C14.164 8.3112 13.8283 8.45021 13.5809 8.69765C13.3335 8.9451 13.1944 9.2807 13.1944 9.63064C13.1944 9.98058 13.3335 10.3162 13.5809 10.5636C13.8283 10.8111 14.164 10.9501 14.5139 10.9501C14.8638 10.9501 15.1994 10.8111 15.4469 10.5636C15.6943 10.3162 15.8333 9.98058 15.8333 9.63064C15.8333 9.2807 15.6943 8.9451 15.4469 8.69765C15.1994 8.45021 14.8638 8.3112 14.5139 8.3112ZM15.5694 0.394531C16.4793 0.394531 17.3519 0.755964 17.9952 1.39932C18.6386 2.04267 19 2.91525 19 3.82509V4.61675H0V3.82509C0 2.91525 0.361432 2.04267 1.00479 1.39932C1.64814 0.755964 2.52072 0.394531 3.43056 0.394531H15.5694Z" fill="#ACACAC"/>
</svg>
