<svg width="25" height="22" viewBox="0 0 25 22" fill="none" xmlns="http://www.w3.org/2000/svg">
<path d="M7.41176 10.2769C8.72225 10.2769 9.97905 9.7563 10.9057 8.82965C11.8324 7.903 12.3529 6.64619 12.3529 5.33571C12.3529 4.02523 11.8324 2.76842 10.9057 1.84177C9.97905 0.915118 8.72225 0.394531 7.41176 0.394531C6.10128 0.394531 4.84447 0.915118 3.91782 1.84177C2.99117 2.76842 2.47059 4.02523 2.47059 5.33571C2.47059 6.64619 2.99117 7.903 3.91782 8.82965C4.84447 9.7563 6.10128 10.2769 7.41176 10.2769ZM18.5294 10.2769C19.5123 10.2769 20.4549 9.88644 21.1499 9.19146C21.8449 8.49647 22.2353 7.55386 22.2353 6.571C22.2353 5.58814 21.8449 4.64553 21.1499 3.95055C20.4549 3.25556 19.5123 2.86512 18.5294 2.86512C17.5465 2.86512 16.6039 3.25556 15.909 3.95055C15.214 4.64553 14.8235 5.58814 14.8235 6.571C14.8235 7.55386 15.214 8.49647 15.909 9.19146C16.6039 9.88644 17.5465 10.2769 18.5294 10.2769ZM2.77941 12.7475C2.04227 12.7475 1.33531 13.0403 0.814071 13.5615C0.29283 14.0828 0 14.7897 0 15.5269V15.8357C0 15.8357 0 21.3945 7.41176 21.3945C14.8235 21.3945 14.8235 15.8357 14.8235 15.8357V15.5269C14.8235 14.7897 14.5307 14.0828 14.0095 13.5615C13.4882 13.0403 12.7813 12.7475 12.0441 12.7475H2.77941ZM18.5294 19.5416C17.0829 19.5416 15.9748 19.318 15.1262 18.9758C15.6201 18.1422 15.93 17.2127 16.0354 16.2495C16.0474 16.1325 16.0552 16.0151 16.0588 15.8975V15.5269C16.0604 14.492 15.661 13.4967 14.9446 12.7499C14.9866 12.7482 15.0286 12.7474 15.0706 12.7475H21.9882C22.709 12.7475 23.4002 13.0338 23.9099 13.5435C24.4196 14.0531 24.7059 14.7444 24.7059 15.4651C24.7059 15.4651 24.7059 19.5416 18.5294 19.5416Z" fill="#ACACAC"/>
</svg>
