<svg width="249" height="284" viewBox="0 0 249 284" fill="none" xmlns="http://www.w3.org/2000/svg">
<path d="M109.716 228.525H39.1953V282.917H109.716V228.525Z" fill="#EBEBEB"/>
<path d="M92.0501 282.538C91.9553 282.538 91.874 270.411 91.874 255.454C91.874 240.497 91.9553 228.37 92.0501 228.37C92.1449 228.37 92.2261 240.497 92.2261 255.454C92.2261 270.411 92.1449 282.538 92.0501 282.538Z" fill="#E0E0E0"/>
<path d="M103.737 270.54H98.334V276.654H103.737V270.54Z" fill="#FAFAFA"/>
<path d="M68.724 228.667H60.7139V240.273H68.724V228.667Z" fill="#E0E0E0"/>
<path d="M68.724 271.149H60.7139V282.755H68.724V271.149Z" fill="#E0E0E0"/>
<path d="M237.682 214.888H148.758V283.472H237.682V214.888Z" fill="#EBEBEB"/>
<path d="M215.399 282.985C215.304 282.985 215.223 267.703 215.223 248.845C215.223 229.988 215.304 214.706 215.399 214.706C215.493 214.706 215.575 229.988 215.575 248.845C215.575 267.703 215.5 282.985 215.399 282.985Z" fill="#E0E0E0"/>
<path d="M230.14 267.858H223.321V275.564H230.14V267.858Z" fill="#FAFAFA"/>
<path d="M185.985 215.064H175.883V229.697H185.985V215.064Z" fill="#E0E0E0"/>
<path d="M185.985 268.63H175.883V283.262H185.985V268.63Z" fill="#E0E0E0"/>
<path d="M182.344 10.5318L176.67 10.5625L176.823 38.7974L182.497 38.7667L182.344 10.5318Z" fill="#E0E0E0"/>
<path d="M142.207 10.607L127.514 10.6865L127.598 26.2733L142.291 26.1938L142.207 10.607Z" fill="#EBEBEB"/>
<path d="M156.831 10.5279L142.138 10.6074L142.222 26.1942L156.915 26.1147L156.831 10.5279Z" fill="#F5F5F5"/>
<path d="M127.531 15.0001C137.299 15.0814 147.072 15.0362 156.85 14.8647C156.891 14.8647 156.931 14.8483 156.96 14.8191C156.989 14.7899 157.005 14.7502 157.005 14.7089C157.005 14.6676 156.989 14.628 156.96 14.5988C156.931 14.5696 156.891 14.5532 156.85 14.5532C147.086 14.499 137.295 14.5532 127.531 14.736C127.501 14.7428 127.474 14.7596 127.455 14.7836C127.436 14.8076 127.426 14.8374 127.426 14.8681C127.426 14.8988 127.436 14.9285 127.455 14.9525C127.474 14.9765 127.501 14.9933 127.531 15.0001Z" fill="#E0E0E0"/>
<path d="M145.052 25.9347L118.354 26.0791L118.423 38.7814L145.121 38.637L145.052 25.9347Z" fill="#EBEBEB"/>
<path d="M171.621 25.7911L144.923 25.9355L144.992 38.6379L171.689 38.4934L171.621 25.7911Z" fill="#F5F5F5"/>
<path d="M118.37 29.6255C136.103 29.8219 153.898 29.6255 171.638 29.3615C171.679 29.3615 171.719 29.3451 171.748 29.3159C171.777 29.2866 171.793 29.247 171.793 29.2057C171.793 29.1644 171.777 29.1248 171.748 29.0956C171.719 29.0664 171.679 29.05 171.638 29.05C153.904 28.9552 136.103 28.962 118.37 29.3547C118.334 29.3547 118.299 29.369 118.274 29.3944C118.249 29.4198 118.234 29.4542 118.234 29.4901C118.234 29.526 118.249 29.5605 118.274 29.5859C118.299 29.6113 118.334 29.6255 118.37 29.6255Z" fill="#E0E0E0"/>
<path d="M211.817 38.7935H108.383V43.3436H211.817V38.7935Z" fill="#E0E0E0"/>
<path d="M129.514 40.9805H125.316V56.5065H129.514V40.9805Z" fill="#E0E0E0"/>
<path d="M192.194 40.9805H187.996V56.5065H192.194V40.9805Z" fill="#E0E0E0"/>
<path d="M187.88 6.17832e-05L182.206 0.0307617L182.416 38.8622L188.09 38.8315L187.88 6.17832e-05Z" fill="#EBEBEB"/>
<path d="M196.742 7.23111L187.926 7.27881L188.096 38.7502L196.912 38.7025L196.742 7.23111Z" fill="#F5F5F5"/>
<path d="M196.683 13.3072C193.753 13.5142 190.811 13.5142 187.881 13.3072C190.812 13.1092 193.752 13.1092 196.683 13.3072Z" fill="#E0E0E0"/>
<path d="M196.684 12.0205C195.22 12.1687 193.747 12.2184 192.276 12.1694C190.805 12.2182 189.333 12.1684 187.868 12.0205C190.799 11.8135 193.74 11.8135 196.671 12.0205H196.684Z" fill="#E0E0E0"/>
<path d="M196.683 33.9791C193.753 34.1861 190.811 34.1861 187.881 33.9791C190.812 33.7811 193.752 33.7811 196.683 33.9791Z" fill="#E0E0E0"/>
<path d="M196.683 32.6587C193.752 32.8567 190.812 32.8567 187.881 32.6587C190.811 32.4517 193.753 32.4517 196.683 32.6587Z" fill="#E0E0E0"/>
<path d="M192.418 29.7742C192.336 29.7742 192.269 26.5986 192.269 22.6849C192.269 18.7713 192.336 15.5889 192.418 15.5889C192.499 15.5889 192.573 18.7645 192.573 22.6849C192.573 26.6054 192.506 29.7742 192.418 29.7742Z" fill="#E0E0E0"/>
<path d="M206.38 14.9731H196.785V38.726H206.38V14.9731Z" fill="#EBEBEB"/>
<path d="M184.956 8.27634C185.857 8.27634 186.588 7.54575 186.588 6.64452C186.588 5.74329 185.857 5.0127 184.956 5.0127C184.055 5.0127 183.324 5.74329 183.324 6.64452C183.324 7.54575 184.055 8.27634 184.956 8.27634Z" fill="#E0E0E0"/>
<path d="M185.464 11.1338H184.455V34.2366H185.464V11.1338Z" fill="#E0E0E0"/>
<path opacity="0.56" d="M228.606 45.5629L227.17 43.2269C215.077 23.5502 193.214 11.6873 170.165 13.116C167.206 13.3032 164.264 13.7038 161.363 14.3145C140.406 18.7428 122.172 34.3975 114.642 54.4398C110.2 66.2282 108.955 79.7974 100.518 89.155C89.5419 101.343 70.9012 101.715 54.5153 101.214C38.1293 100.713 19.4751 101.14 8.5466 113.361C1.70107 121.02 -0.472438 131.907 0.082788 142.159C1.54534 169.304 20.7006 193.578 45.0629 205.644C69.4251 217.71 98.1073 218.794 124.772 213.485C162.121 206.037 197.642 185.629 218.991 154.096C240.34 122.563 245.716 79.601 228.606 45.5629Z" fill="#E8E8E8"/>
<path d="M219.82 265.38C219.852 265.281 219.892 265.186 219.942 265.095C220.037 264.892 220.166 264.621 220.321 264.276C220.792 263.219 221.171 262.122 221.452 260.999C222.197 258.087 222.461 253.639 221.357 248.357C220.758 245.477 219.973 242.639 219.008 239.86C218.019 236.847 216.861 233.651 215.92 230.191C214.858 226.582 214.344 222.834 214.397 219.073C214.539 215.139 215.704 211.218 216.983 207.305C218.263 203.391 219.583 199.579 219.976 195.719C220.413 192.018 219.669 188.274 217.85 185.021C216.157 181.9 214.024 179.225 212.433 176.462C210.943 173.895 209.846 171.12 209.176 168.229C208.215 164.043 208.144 159.701 208.966 155.486C209.266 153.943 209.72 152.435 210.321 150.983C210.302 151.084 210.275 151.184 210.239 151.281L209.968 152.141C209.738 152.899 209.434 154.037 209.142 155.526C208.386 159.723 208.498 164.03 209.474 168.181C210.153 171.038 211.256 173.776 212.745 176.307C214.336 179.015 216.475 181.723 218.209 184.858C220.072 188.177 220.837 192 220.396 195.78C219.996 199.694 218.669 203.547 217.39 207.453C216.11 211.36 214.959 215.24 214.817 219.106C214.756 222.83 215.258 226.542 216.306 230.116C217.234 233.556 218.371 236.752 219.353 239.778C220.309 242.573 221.078 245.427 221.655 248.324C222.732 253.646 222.427 258.142 221.655 261.06C221.353 262.185 220.948 263.28 220.443 264.33L220.023 265.136C219.965 265.225 219.897 265.307 219.82 265.38Z" fill="#263238"/>
<path d="M214.6 179.191C214.6 179.191 211.364 168.824 217.173 162.758C217.218 162.709 217.276 162.673 217.34 162.655C217.404 162.637 217.471 162.638 217.535 162.656C217.599 162.674 217.657 162.71 217.702 162.759C217.746 162.808 217.777 162.868 217.789 162.934C218.101 164.647 218.487 169.86 214.6 179.191Z" fill="#134BC8"/>
<path d="M216.543 166.211C216.533 166.853 216.46 167.492 216.327 168.12C216.11 169.441 215.859 170.985 215.589 172.691C215.318 174.397 215.067 175.948 214.857 177.261C214.798 177.902 214.685 178.536 214.519 179.157C214.455 178.517 214.469 177.871 214.559 177.234C214.668 176.049 214.878 174.424 215.169 172.637C215.46 170.849 215.778 169.251 216.029 168.08C216.128 167.439 216.3 166.812 216.543 166.211Z" fill="#263238"/>
<path d="M218.405 203.641C218.405 203.641 220.389 192.963 228.366 190.323C228.428 190.301 228.496 190.297 228.561 190.311C228.626 190.326 228.686 190.358 228.734 190.404C228.781 190.45 228.815 190.509 228.832 190.574C228.848 190.638 228.846 190.706 228.826 190.77C228.298 192.415 226.206 197.202 218.405 203.641Z" fill="#134BC8"/>
<path d="M226.191 193.065C225.882 193.629 225.519 194.162 225.108 194.656L222.312 198.346L219.536 202.05C219.186 202.588 218.789 203.093 218.351 203.56C218.598 202.964 218.916 202.4 219.299 201.881C219.976 200.886 220.896 199.545 222.007 198.103C223.117 196.66 224.126 195.394 224.891 194.473C225.272 193.958 225.708 193.485 226.191 193.065Z" fill="#263238"/>
<path d="M216.251 230.407C216.251 230.407 215.046 219.614 221.912 214.773C221.965 214.732 222.028 214.706 222.095 214.7C222.162 214.693 222.23 214.706 222.289 214.737C222.349 214.768 222.399 214.815 222.433 214.873C222.467 214.931 222.483 214.997 222.481 215.064C222.46 216.804 221.844 221.991 216.251 230.407Z" fill="#134BC8"/>
<path d="M220.653 218.037C220.527 218.667 220.334 219.282 220.077 219.872L218.479 224.219C217.883 225.844 217.349 227.313 216.895 228.566C216.721 229.182 216.495 229.782 216.218 230.36C216.28 229.718 216.421 229.086 216.638 228.478C216.969 227.34 217.484 225.769 218.114 224.076C218.743 222.384 219.36 220.86 219.827 219.77C220.042 219.166 220.319 218.585 220.653 218.037Z" fill="#263238"/>
<path d="M222.258 257.343C222.258 257.343 221.446 246.509 228.474 241.918C228.529 241.88 228.593 241.859 228.66 241.855C228.727 241.852 228.793 241.868 228.851 241.9C228.91 241.932 228.958 241.98 228.991 242.039C229.023 242.097 229.039 242.163 229.036 242.23C228.955 243.97 228.156 249.136 222.258 257.343Z" fill="#134BC8"/>
<path d="M227.079 245.141C226.927 245.766 226.712 246.375 226.436 246.956C225.935 248.188 225.339 249.664 224.682 251.242C224.025 252.819 223.45 254.289 222.949 255.528C222.748 256.139 222.492 256.731 222.184 257.295C222.273 256.655 222.439 256.027 222.678 255.426C223.05 254.302 223.619 252.759 224.31 251.086C225 249.414 225.664 247.91 226.172 246.841C226.413 246.243 226.717 245.674 227.079 245.141Z" fill="#263238"/>
<path d="M209.941 170.084C209.941 170.084 200.34 165.047 200.13 156.657C200.129 156.591 200.147 156.527 200.18 156.47C200.213 156.413 200.261 156.366 200.318 156.334C200.376 156.303 200.441 156.287 200.507 156.289C200.572 156.291 200.636 156.31 200.692 156.346C202.121 157.334 206.088 160.747 209.941 170.084Z" fill="#134BC8"/>
<path d="M202.127 159.542C202.578 160.002 202.979 160.508 203.325 161.051C204.111 162.128 205.025 163.401 206.034 164.803L208.742 168.54C209.155 169.032 209.522 169.56 209.839 170.118C209.344 169.706 208.901 169.235 208.519 168.716C207.754 167.809 206.752 166.509 205.695 165.04C204.639 163.57 203.711 162.209 203.075 161.214C202.702 160.691 202.384 160.13 202.127 159.542Z" fill="#263238"/>
<path d="M220.28 192.34C220.28 192.34 210.368 187.905 209.67 179.53C209.665 179.464 209.677 179.398 209.707 179.339C209.736 179.279 209.782 179.23 209.838 179.195C209.894 179.16 209.958 179.141 210.024 179.14C210.09 179.139 210.155 179.157 210.212 179.191C211.695 180.092 215.859 183.247 220.28 192.34Z" fill="#134BC8"/>
<path d="M211.851 182.292C212.328 182.722 212.759 183.201 213.137 183.721L216.076 187.303L219.021 190.871C219.462 191.338 219.861 191.844 220.213 192.381C219.693 191.998 219.221 191.555 218.804 191.061C217.992 190.194 216.909 188.962 215.764 187.56C214.62 186.159 213.618 184.852 212.914 183.897C212.501 183.403 212.144 182.865 211.851 182.292Z" fill="#263238"/>
<path d="M214.559 217.183C214.559 217.183 207.788 208.72 210.95 200.933C210.975 200.872 211.016 200.819 211.069 200.78C211.122 200.741 211.185 200.717 211.251 200.711C211.317 200.706 211.383 200.718 211.442 200.748C211.501 200.777 211.551 200.823 211.586 200.879C212.527 202.348 214.782 207.061 214.559 217.183Z" fill="#134BC8"/>
<path d="M211.634 204.373C211.866 204.974 212.034 205.598 212.135 206.235C212.42 207.535 212.752 209.065 213.117 210.758C213.483 212.45 213.828 213.974 214.113 215.274C214.294 215.891 214.418 216.523 214.485 217.163C214.188 216.587 213.96 215.978 213.808 215.348C213.476 214.204 213.07 212.64 212.691 210.839C212.311 209.038 212.013 207.453 211.824 206.289C211.691 205.659 211.627 205.016 211.634 204.373Z" fill="#263238"/>
<path d="M221.33 246.373C221.33 246.373 211.492 241.776 210.936 233.393C210.93 233.326 210.942 233.259 210.972 233.199C211.002 233.139 211.048 233.088 211.105 233.053C211.162 233.018 211.228 232.999 211.295 233C211.362 233 211.428 233.019 211.485 233.055C212.941 233.982 217.051 237.212 221.33 246.373Z" fill="#134BC8"/>
<path d="M213.049 236.183C213.514 236.627 213.936 237.115 214.308 237.639L217.186 241.261L220.07 244.884C220.504 245.358 220.894 245.87 221.235 246.414C220.731 246.019 220.276 245.564 219.881 245.06C219.075 244.18 218.019 242.927 216.895 241.505C215.771 240.083 214.796 238.763 214.105 237.795C213.692 237.3 213.337 236.76 213.049 236.183Z" fill="#263238"/>
<path d="M240.905 203.689C240.905 203.689 240.905 203.77 240.905 203.926C240.905 204.082 240.905 204.339 240.905 204.603C240.905 205.28 240.838 206.14 240.79 207.237C240.668 209.553 240.486 212.782 240.276 216.642C239.599 220.569 237.567 224.923 234.859 229.155C232.888 232.27 230.796 235.1 229.036 237.734C227.429 240.045 225.985 242.466 224.716 244.979C223.875 246.677 223.195 248.449 222.684 250.274C222.515 250.917 222.38 251.425 222.305 251.77C222.273 251.95 222.226 252.127 222.163 252.298C222.165 252.116 222.188 251.934 222.231 251.757C222.278 251.405 222.38 250.89 222.535 250.233C222.991 248.377 223.638 246.573 224.465 244.85C225.724 242.318 227.165 239.88 228.778 237.558C230.552 234.904 232.604 232.066 234.568 228.972C237.242 224.76 239.233 220.474 239.984 216.608C240.255 212.755 240.479 209.532 240.662 207.217C240.75 206.12 240.824 205.246 240.878 204.59C240.878 204.319 240.926 204.088 240.946 203.912C240.923 203.84 240.909 203.765 240.905 203.689Z" fill="#263238"/>
<path d="M235.048 228.376C235.048 228.376 239.212 218.355 233.978 211.78C233.938 211.728 233.883 211.687 233.821 211.664C233.759 211.64 233.691 211.635 233.626 211.647C233.56 211.66 233.5 211.69 233.451 211.735C233.402 211.78 233.367 211.838 233.349 211.902C232.881 213.582 232.021 218.734 235.048 228.376Z" fill="#134BC8"/>
<path d="M234.29 215.281C234.47 215.899 234.581 216.534 234.622 217.177C234.771 218.355 234.934 219.987 235.062 221.795C235.191 223.602 235.252 225.241 235.252 226.433C235.292 227.076 235.254 227.722 235.137 228.356C235.02 227.724 234.963 227.082 234.967 226.439C234.879 225.085 234.771 223.548 234.656 221.822C234.541 220.095 234.432 218.531 234.338 217.204C234.259 216.566 234.243 215.922 234.29 215.281Z" fill="#263238"/>
<path d="M235.048 228.376C235.048 228.376 239.212 218.355 233.978 211.78C233.938 211.728 233.883 211.687 233.821 211.664C233.759 211.64 233.691 211.635 233.626 211.647C233.56 211.66 233.5 211.69 233.451 211.735C233.402 211.78 233.367 211.838 233.349 211.902C232.881 213.582 232.021 218.734 235.048 228.376Z" fill="black"/>
<path d="M222.15 252.542C222.15 252.542 225.488 242.209 219.732 236.088C219.688 236.04 219.631 236.004 219.567 235.986C219.504 235.967 219.436 235.967 219.372 235.985C219.309 236.002 219.251 236.037 219.206 236.085C219.161 236.133 219.13 236.193 219.116 236.258C218.791 237.964 218.351 243.178 222.15 252.542Z" fill="#134BC8"/>
<path d="M220.328 239.528C220.563 240.13 220.726 240.757 220.816 241.397C221.059 242.554 221.351 244.173 221.628 245.96C221.906 247.748 222.095 249.38 222.197 250.565C222.285 251.204 222.296 251.852 222.231 252.494C222.07 251.873 221.961 251.238 221.906 250.599C221.709 249.278 221.479 247.734 221.229 246.021C220.978 244.308 220.734 242.764 220.552 241.444C220.414 240.814 220.339 240.172 220.328 239.528Z" fill="#263238"/>
<path d="M222.15 252.542C222.15 252.542 225.488 242.209 219.732 236.088C219.688 236.04 219.631 236.004 219.567 235.986C219.504 235.967 219.436 235.967 219.372 235.985C219.309 236.002 219.251 236.037 219.206 236.085C219.161 236.133 219.13 236.193 219.116 236.258C218.791 237.964 218.351 243.178 222.15 252.542Z" fill="black"/>
<path d="M240.356 216.127C240.356 216.127 249.247 209.898 248.353 201.543C248.346 201.477 248.321 201.414 248.281 201.362C248.241 201.309 248.187 201.269 248.125 201.245C248.064 201.221 247.997 201.215 247.932 201.227C247.867 201.239 247.806 201.268 247.757 201.312C246.464 202.477 242.997 206.35 240.356 216.127Z" fill="#134BC8"/>
<path d="M240.356 216.127C240.356 216.127 249.247 209.898 248.353 201.543C248.346 201.477 248.321 201.414 248.281 201.362C248.241 201.309 248.187 201.269 248.125 201.245C248.064 201.221 247.997 201.215 247.932 201.227C247.867 201.239 247.806 201.268 247.757 201.312C246.464 202.477 242.997 206.35 240.356 216.127Z" fill="black"/>
<path d="M246.741 204.664C246.565 205.284 246.317 205.882 246.003 206.445C245.496 207.515 244.757 208.977 243.898 210.575C243.038 212.173 242.212 213.588 241.575 214.59C241.262 215.153 240.882 215.676 240.444 216.148C240.682 215.552 240.977 214.981 241.325 214.441C241.961 213.27 242.713 211.902 243.539 210.379L245.746 206.316C246.023 205.734 246.357 205.181 246.741 204.664Z" fill="#263238"/>
<path d="M225.738 242.297C225.738 242.297 236.464 240.625 239.335 232.73C239.358 232.668 239.364 232.601 239.352 232.537C239.339 232.472 239.31 232.412 239.266 232.363C239.222 232.314 239.165 232.278 239.102 232.259C239.039 232.24 238.972 232.239 238.908 232.256C237.236 232.757 232.387 234.687 225.738 242.297Z" fill="#134BC8"/>
<path d="M225.738 242.297C225.738 242.297 236.464 240.625 239.335 232.73C239.358 232.668 239.364 232.601 239.352 232.537C239.339 232.472 239.31 232.412 239.266 232.363C239.222 232.314 239.165 232.278 239.102 232.259C239.039 232.24 238.972 232.239 238.908 232.256C237.236 232.757 232.387 234.687 225.738 242.297Z" fill="black"/>
<path d="M236.517 234.822C236.083 235.297 235.597 235.721 235.068 236.088C234.141 236.833 232.834 237.822 231.365 238.878C229.895 239.934 228.521 240.835 227.505 241.458C226.976 241.827 226.403 242.13 225.799 242.358C226.279 241.93 226.798 241.547 227.349 241.214L231.128 238.546L234.899 235.838C235.401 235.443 235.943 235.102 236.517 234.822Z" fill="#263238"/>
<path d="M215.5 262.042L212.372 283.099H231.873L229.347 262.042H215.5Z" fill="#455A64"/>
<path d="M230.132 268.562C230.132 268.677 226.612 268.765 222.271 268.765C217.931 268.765 214.403 268.677 214.403 268.562C217.021 268.362 219.647 268.294 222.271 268.359C224.893 268.294 227.517 268.362 230.132 268.562Z" fill="#263238"/>
<path d="M230.511 270.242C230.511 270.357 226.875 270.445 222.386 270.445C217.897 270.445 214.261 270.357 214.261 270.242C214.261 270.127 217.897 270.039 222.386 270.039C226.875 270.039 230.511 270.127 230.511 270.242Z" fill="#263238"/>
<path d="M154.683 57.7522C154.683 57.7522 154.5 57.7522 154.148 57.7522C153.633 57.7217 153.118 57.7217 152.604 57.7522C150.615 57.8686 148.661 58.3267 146.828 59.1064C143.922 60.3244 141.393 62.2947 139.502 64.8144C138.336 66.3877 137.468 68.1618 136.942 70.0484C135.757 74.5425 136.397 79.3228 138.723 83.3468C139.357 84.4608 140.131 85.4893 141.025 86.4073C141.928 87.3798 142.979 88.2026 144.14 88.8449C145.331 89.5152 146.68 89.8543 148.047 89.8267C149.456 89.8098 150.807 89.2635 151.832 88.2964C152.327 87.7773 152.716 87.1657 152.975 86.4965C153.234 85.8273 153.359 85.1137 153.342 84.3963C153.332 82.9058 152.858 81.4554 151.988 80.2456C150.234 77.7742 147.39 76.1153 144.363 75.2215C141.225 74.34 137.911 74.2934 134.749 75.0861C133.134 75.506 131.579 76.1246 130.117 76.9278C128.642 77.7605 127.301 78.8131 126.143 80.0493C125.865 80.3675 125.547 80.6587 125.296 81.0108L124.531 82.04C124.066 82.7652 123.65 83.5207 123.285 84.3015C122.561 85.8867 122.066 87.567 121.816 89.2918C121.324 92.7374 121.793 96.2518 123.17 99.4483C124.486 102.572 126.779 105.185 129.704 106.896C131.122 107.707 132.706 108.186 134.335 108.298C135.933 108.388 137.523 108.006 138.906 107.201C140.279 106.442 141.364 105.253 141.994 103.816C142.587 102.399 142.628 100.812 142.109 99.3671C141.574 97.9729 140.698 96.7346 139.563 95.7649C138.461 94.813 137.191 94.0758 135.818 93.5914C133.141 92.7472 130.276 92.6978 127.571 93.4492C125.04 94.135 122.716 95.4298 120.8 97.2207C119.055 98.8921 117.727 100.949 116.92 103.227C115.51 107.178 115.575 111.507 117.103 115.414C118.295 118.332 120.213 120.896 122.676 122.863C124.227 124.107 125.954 125.113 127.801 125.849C128.438 126.086 128.932 126.262 129.271 126.357L129.772 126.519C129.772 126.519 129.596 126.485 129.257 126.39C128.757 126.256 128.264 126.096 127.781 125.91C125.91 125.206 124.16 124.215 122.594 122.971C120.091 121.005 118.134 118.429 116.914 115.489C115.358 111.544 115.279 107.171 116.69 103.172C117.498 100.86 118.841 98.7721 120.611 97.0785C122.553 95.2517 124.912 93.9269 127.483 93.219C130.245 92.4485 133.171 92.4955 135.906 93.3544C137.32 93.8472 138.627 94.6031 139.759 95.5821C140.939 96.5836 141.848 97.8669 142.4 99.3129C142.957 100.823 142.933 102.485 142.332 103.978C141.664 105.472 140.531 106.709 139.102 107.506C137.668 108.342 136.021 108.742 134.363 108.657C132.693 108.54 131.072 108.045 129.623 107.208C126.631 105.472 124.281 102.814 122.926 99.6312C121.52 96.3761 121.037 92.7964 121.531 89.285C121.79 87.5253 122.296 85.8111 123.035 84.1932C123.407 83.3958 123.832 82.6244 124.308 81.8842L125.093 80.8347C125.344 80.4759 125.669 80.1576 125.953 79.8461C127.139 78.5865 128.509 77.5136 130.016 76.6637C131.511 75.8452 133.104 75.2174 134.755 74.7949C137.978 73.9874 141.355 74.0364 144.553 74.9371C147.641 75.858 150.532 77.544 152.353 80.1034C153.269 81.3637 153.766 82.8793 153.775 84.4369C153.808 85.9698 153.231 87.4531 152.17 88.5605C151.087 89.5774 149.661 90.1502 148.176 90.1652C146.754 90.1975 145.35 89.8442 144.113 89.1428C142.924 88.487 141.85 87.6433 140.931 86.6443C140.024 85.7058 139.239 84.6571 138.594 83.5228C136.227 79.4241 135.584 74.5533 136.807 69.9807C137.349 68.0723 138.237 66.2797 139.427 64.6925C141.354 62.1537 143.926 60.1779 146.875 58.971C148.724 58.2063 150.693 57.7754 152.692 57.698C153.21 57.6638 153.731 57.6638 154.249 57.698L154.683 57.7522Z" fill="#263238"/>
<path d="M177.291 125.503H82.3545V198.726H177.291V125.503Z" fill="#134BC8"/>
<path d="M82.3545 125.503L99.8915 141.862H193.217L177.291 125.503H82.3545Z" fill="#134BC8"/>
<path d="M82.3545 125.503L177.319 125.334H177.393L177.447 125.381L193.21 141.571L193.373 141.74L193.664 142.038H193.244L99.9186 141.964H99.878L82.3545 125.503L99.9592 141.754H99.8848L193.21 141.686L193.088 141.984L192.919 141.815L177.163 125.625L177.285 125.679L82.3545 125.503Z" fill="#263238"/>
<path d="M110.874 159.271C110.36 159.289 109.873 159.509 109.519 159.883C109.165 160.256 108.972 160.754 108.982 161.268C108.991 161.783 109.202 162.273 109.569 162.634C109.936 162.994 110.43 163.196 110.945 163.196C111.46 163.196 111.954 162.994 112.321 162.634C112.688 162.273 112.899 161.783 112.908 161.268C112.918 160.754 112.725 160.256 112.371 159.883C112.017 159.509 111.53 159.289 111.016 159.271" fill="white"/>
<path d="M133.306 159.271C132.794 159.29 132.31 159.51 131.958 159.882C131.606 160.255 131.414 160.751 131.424 161.263C131.434 161.776 131.644 162.264 132.01 162.623C132.376 162.982 132.868 163.183 133.381 163.183C133.893 163.183 134.385 162.982 134.751 162.623C135.117 162.264 135.327 161.776 135.337 161.263C135.347 160.751 135.155 160.255 134.803 159.882C134.451 159.51 133.967 159.29 133.455 159.271" fill="white"/>
<path d="M133.435 176.794C133.044 175.298 132.408 173.878 131.553 172.589C130.602 171.211 129.381 170.041 127.964 169.15C126.255 168.015 124.261 167.384 122.211 167.328C120.16 167.271 118.135 167.792 116.366 168.831C114.905 169.647 113.622 170.748 112.594 172.068C111.668 173.309 110.956 174.696 110.488 176.171C110.493 176.061 110.512 175.952 110.542 175.846C110.607 175.541 110.691 175.24 110.793 174.946C111.164 173.858 111.706 172.836 112.398 171.919C113.418 170.537 114.717 169.384 116.21 168.533C118.024 167.45 120.11 166.906 122.222 166.963C124.335 167.021 126.387 167.678 128.14 168.858C129.582 169.785 130.813 171.003 131.756 172.434C132.399 173.389 132.886 174.44 133.198 175.548C133.282 175.849 133.347 176.154 133.395 176.462C133.418 176.571 133.432 176.683 133.435 176.794Z" fill="white"/>
<path opacity="0.5" d="M82.5713 126.309L99.3635 147.597H177.292V141.862H99.8916L82.5713 126.309Z" fill="black"/>
<path d="M158.57 198.563C158.475 198.563 158.394 185.827 158.394 170.124C158.394 154.422 158.475 141.686 158.57 141.686C158.664 141.686 158.752 154.416 158.752 170.124C158.752 185.833 158.671 198.563 158.57 198.563Z" fill="#263238"/>
<path d="M173.479 181.96H165.11V191.42H173.479V181.96Z" fill="#0D358C"/>
<path d="M82.3543 125.503L62.8672 141.862H82.3543V125.503Z" fill="#134BC8"/>
<path d="M82.3543 125.503L62.8672 141.862H82.3543V125.503Z" fill="black"/>
<path d="M180.095 198.726H70.9385V282.917H180.095V198.726Z" fill="#134BC8"/>
<path opacity="0.3" d="M180.095 198.726H70.9385V282.917H180.095V198.726Z" fill="black"/>
<path d="M152.746 282.321C152.652 282.321 152.57 263.558 152.57 240.415C152.57 217.271 152.652 198.502 152.746 198.502C152.841 198.502 152.922 217.265 152.922 240.415C152.922 263.565 152.841 282.321 152.746 282.321Z" fill="#263238"/>
<path d="M170.839 263.755H162.47V273.214H170.839V263.755Z" fill="#134BC8"/>
<path d="M116.636 198.949H104.238V216.913H116.636V198.949Z" fill="#134BC8"/>
<path d="M116.636 264.703H104.238V282.666H116.636V264.703Z" fill="#134BC8"/>
<path d="M179.147 198.726H178.862H178.043L174.894 198.759L163.296 198.814L125.046 198.902L86.7827 198.854L75.1907 198.8L72.0422 198.766H71.2161H70.9385H71.2161H72.0422L75.1907 198.732L86.7827 198.678L125.046 198.624L163.296 198.678L174.894 198.732L178.043 198.766H178.862L179.147 198.726Z" fill="#263238"/>
</svg>
