<svg width="18" height="19" viewBox="0 0 18 19" fill="none" xmlns="http://www.w3.org/2000/svg">
<path fill-rule="evenodd" clip-rule="evenodd" d="M12.6183 0.148193C15.5442 0.148193 17.5097 2.15185 17.5097 5.13361V13.6917C17.5097 16.6996 15.6047 18.6557 12.6565 18.6744L5.49709 18.6772C2.57117 18.6772 0.604736 16.6735 0.604736 13.6917V5.13361C0.604736 2.12486 2.50975 0.169598 5.458 0.151916L12.6174 0.148193H12.6183ZM12.6183 1.54415L5.46266 1.54787C3.29613 1.5609 2.00069 2.90101 2.00069 5.13361V13.6917C2.00069 15.9392 3.30823 17.2812 5.49616 17.2812L12.6518 17.2784C14.8183 17.2654 16.1138 15.9234 16.1138 13.6917V5.13361C16.1138 2.88612 14.8072 1.54415 12.6183 1.54415ZM12.4388 12.6873C12.8241 12.6873 13.1368 13 13.1368 13.3853C13.1368 13.7706 12.8241 14.0833 12.4388 14.0833H5.7196C5.33432 14.0833 5.02163 13.7706 5.02163 13.3853C5.02163 13 5.33432 12.6873 5.7196 12.6873H12.4388ZM12.4388 8.79119C12.8241 8.79119 13.1368 9.10389 13.1368 9.48917C13.1368 9.87446 12.8241 10.1871 12.4388 10.1871H5.7196C5.33432 10.1871 5.02163 9.87446 5.02163 9.48917C5.02163 9.10389 5.33432 8.79119 5.7196 8.79119H12.4388ZM8.28323 4.90412C8.66851 4.90412 8.9812 5.21681 8.9812 5.60209C8.9812 5.98738 8.66851 6.30007 8.28323 6.30007H5.71933C5.33404 6.30007 5.02135 5.98738 5.02135 5.60209C5.02135 5.21681 5.33404 4.90412 5.71933 4.90412H8.28323Z" fill="#134BC8"/>
</svg>
