<svg width="16" height="4" viewBox="0 0 16 4" fill="none" xmlns="http://www.w3.org/2000/svg">
<path d="M3.67885 2.28571C3.67885 2.69301 3.51705 3.08363 3.22905 3.37163C2.94105 3.65963 2.55043 3.82143 2.14314 3.82143C1.73584 3.82143 1.34522 3.65963 1.05722 3.37163C0.76922 3.08363 0.607422 2.69301 0.607422 2.28571C0.607422 1.87842 0.76922 1.4878 1.05722 1.1998C1.34522 0.911798 1.73584 0.75 2.14314 0.75C2.55043 0.75 2.94105 0.911798 3.22905 1.1998C3.51705 1.4878 3.67885 1.87842 3.67885 2.28571ZM9.82171 2.28571C9.82171 2.69301 9.65991 3.08363 9.37191 3.37163C9.0839 3.65963 8.69329 3.82143 8.28599 3.82143C7.8787 3.82143 7.48808 3.65963 7.20008 3.37163C6.91208 3.08363 6.75028 2.69301 6.75028 2.28571C6.75028 1.87842 6.91208 1.4878 7.20008 1.1998C7.48808 0.911798 7.8787 0.75 8.28599 0.75C8.69329 0.75 9.0839 0.911798 9.37191 1.1998C9.65991 1.4878 9.82171 1.87842 9.82171 2.28571ZM14.4289 3.82143C14.8361 3.82143 15.2268 3.65963 15.5148 3.37163C15.8028 3.08363 15.9646 2.69301 15.9646 2.28571C15.9646 1.87842 15.8028 1.4878 15.5148 1.1998C15.2268 0.911798 14.8361 0.75 14.4289 0.75C14.0216 0.75 13.6309 0.911798 13.3429 1.1998C13.0549 1.4878 12.8931 1.87842 12.8931 2.28571C12.8931 2.69301 13.0549 3.08363 13.3429 3.37163C13.6309 3.65963 14.0216 3.82143 14.4289 3.82143Z" fill="black"/>
</svg>
