<svg width="21" height="18" viewBox="0 0 21 18" fill="none" xmlns="http://www.w3.org/2000/svg">
<path d="M9.01789 12.083H0.998892L0.881892 12.09C0.628796 12.1201 0.396747 12.2457 0.233157 12.4412C0.0695667 12.6366 -0.0132171 12.8872 0.00172004 13.1416C0.0166572 13.3961 0.128188 13.6352 0.313524 13.8102C0.49886 13.9851 0.744012 14.0827 0.998892 14.083H9.17289C9.01836 13.4283 8.96608 12.7537 9.01789 12.083ZM18.9989 6.08301H0.998892C0.744012 6.08273 0.49886 5.98513 0.313524 5.81016C0.128188 5.63519 0.0166572 5.39605 0.00172004 5.14161C-0.0132171 4.88717 0.0695667 4.63663 0.233157 4.44118C0.396747 4.24572 0.628796 4.12011 0.881892 4.09001L0.998892 4.08301H18.9989C19.2538 4.08329 19.4989 4.18089 19.6843 4.35586C19.8696 4.53083 19.9811 4.76996 19.9961 5.0244C20.011 5.27884 19.9282 5.52939 19.7646 5.72484C19.601 5.92029 19.369 6.0459 19.1159 6.07601L18.9989 6.08301ZM0.998892 10.083H9.49689C9.80686 9.34099 10.2517 8.66286 10.8089 8.08301H0.998892L0.881892 8.09001C0.628796 8.12011 0.396747 8.24572 0.233157 8.44118C0.0695667 8.63663 -0.0132171 8.88717 0.00172004 9.14161C0.0166572 9.39605 0.128188 9.63519 0.313524 9.81016C0.49886 9.98513 0.744012 10.0827 0.998892 10.083ZM18.9989 0.0830078H0.998892L0.881892 0.0900078C0.628796 0.120111 0.396747 0.245722 0.233157 0.441175C0.0695667 0.636629 -0.0132171 0.887171 0.00172004 1.14161C0.0166572 1.39605 0.128188 1.63519 0.313524 1.81016C0.49886 1.98513 0.744012 2.08273 0.998892 2.08301H18.9989L19.1159 2.07601C19.369 2.0459 19.601 1.92029 19.7646 1.72484C19.9282 1.52939 20.011 1.27884 19.9961 1.0244C19.9811 0.769961 19.8696 0.530825 19.6843 0.355856C19.4989 0.180887 19.2538 0.0832905 18.9989 0.0830078ZM12.2769 9.05801L12.0789 8.37201C12.5196 7.98834 13.0207 7.68018 13.5619 7.46001L14.0609 7.98401C14.2477 8.18053 14.4726 8.337 14.7217 8.44392C14.9709 8.55085 15.2392 8.60598 15.5104 8.60598C15.7815 8.60598 16.0499 8.55085 16.299 8.44392C16.5482 8.337 16.7731 8.18053 16.9599 7.98401L17.4529 7.46601C17.9953 7.68877 18.4969 8.00037 18.9369 8.38801L18.7509 9.01801C18.6741 9.27812 18.6509 9.55115 18.6829 9.82048C18.7149 10.0898 18.8014 10.3498 18.937 10.5847C19.0726 10.8196 19.2546 11.0244 19.4719 11.1867C19.6892 11.3491 19.9372 11.4655 20.2009 11.529L20.7399 11.659C20.8375 12.2576 20.8395 12.8678 20.7459 13.467L20.1619 13.611C19.9008 13.6758 19.6554 13.7926 19.4405 13.9544C19.2255 14.1162 19.0455 14.3197 18.911 14.5527C18.7766 14.7858 18.6905 15.0435 18.658 15.3106C18.6255 15.5777 18.6473 15.8485 18.7219 16.107L18.9189 16.793C18.4788 17.1778 17.9776 17.4863 17.4359 17.706L16.9379 17.181C16.7511 16.9843 16.5262 16.8277 16.2769 16.7207C16.0276 16.6137 15.7592 16.5585 15.4879 16.5585C15.2166 16.5585 14.9482 16.6137 14.6989 16.7207C14.4496 16.8277 14.2247 16.9843 14.0379 17.181L13.5449 17.699C13.0026 17.4765 12.501 17.1652 12.0609 16.778L12.2479 16.147C12.3246 15.887 12.3476 15.614 12.3155 15.3448C12.2834 15.0756 12.197 14.8157 12.0613 14.581C11.9257 14.3462 11.7438 14.1415 11.5266 13.9792C11.3094 13.8169 11.0615 13.7005 10.7979 13.637L10.2579 13.507C10.16 12.9085 10.158 12.2982 10.2519 11.699L10.8359 11.555C11.0972 11.4904 11.3428 11.3736 11.5579 11.2118C11.773 11.05 11.9533 10.8464 12.0878 10.6132C12.2224 10.38 12.3085 10.1221 12.341 9.85489C12.3735 9.58765 12.3517 9.31661 12.2769 9.05801ZM15.4989 14.083C16.2989 14.083 16.9489 13.411 16.9489 12.583C16.9489 11.754 16.2989 11.083 15.4989 11.083C14.6989 11.083 14.0489 11.754 14.0489 12.583C14.0489 13.411 14.6989 14.083 15.4989 14.083Z" fill="#ACACAC"/>
</svg>
