<svg width="13" height="12" viewBox="0 0 13 12" fill="none" xmlns="http://www.w3.org/2000/svg">
<path d="M10.0723 0.052002H6.71289L8.85053 2.90235L10.0723 0.052002ZM2.94721 0.052002L4.169 2.90235L6.30664 0.052002H2.94721ZM6.50977 1.13542L4.88477 3.302H8.13477L6.50977 1.13542ZM10.7487 0.535947L9.56324 3.302H12.4004L10.7487 0.535947ZM2.2708 0.535947L0.59375 3.302H3.45629L2.2708 0.535947ZM3.73406 4.1145H0.619141L6.27617 11.427H6.28963L3.73406 4.1145ZM9.28547 4.1145L6.7299 11.427H6.74336L12.4004 4.1145H9.28547ZM8.37318 4.1145H4.64635L6.50977 9.39575L8.37318 4.1145Z" fill="white"/>
</svg>
