<svg width="21" height="17" viewBox="0 0 21 17" fill="none" xmlns="http://www.w3.org/2000/svg">
<path fill-rule="evenodd" clip-rule="evenodd" d="M3.05365 12.9387C3.05365 14.4284 4.26608 15.6409 5.75671 15.6409H6.87672C7.25186 15.6409 7.55633 15.9453 7.55633 16.3205C7.55633 16.6956 7.25186 17.0001 6.87672 17.0001H5.75671C3.51669 17.0001 1.69442 15.1778 1.69442 12.9387L1.6936 9.92611L0.679616 9.92693C0.304468 9.92693 0 9.62246 0 9.24731C0 8.87217 0.304468 8.5677 0.679616 8.5677L2.36106 8.56664C2.36538 8.56656 2.3697 8.56652 2.37403 8.56652L2.38681 8.56688L18.0006 8.56666C18.0052 8.56657 18.0098 8.56652 18.0143 8.56652L18.027 8.56688L19.7089 8.5677C20.084 8.5677 20.3885 8.87217 20.3885 9.24731C20.3885 9.62246 20.084 9.92693 19.7089 9.92693L18.694 9.92611V12.9387C18.694 15.1778 16.8717 17.0001 14.6317 17.0001H13.5398C13.1646 17.0001 12.8601 16.6956 12.8601 16.3205C12.8601 15.9453 13.1646 15.6409 13.5398 15.6409H14.6317C16.1223 15.6409 17.3347 14.4284 17.3347 12.9387V9.92611H3.05283L3.05365 12.9387ZM14.6316 9.91821e-05C16.8716 9.91821e-05 18.6939 1.82238 18.6939 4.06058V5.43249C18.6939 5.80764 18.3894 6.11211 18.0143 6.11211C17.6391 6.11211 17.3346 5.80764 17.3346 5.43249V4.06058C17.3346 2.57177 16.1222 1.35933 14.6316 1.35933H13.5397C13.1645 1.35933 12.8601 1.05486 12.8601 0.679715C12.8601 0.304567 13.1645 9.91821e-05 13.5397 9.91821e-05H14.6316ZM6.8769 9.91821e-05C7.25204 9.91821e-05 7.55651 0.304567 7.55651 0.679715C7.55651 1.05486 7.25204 1.35933 6.8769 1.35933H5.75689C4.26627 1.35933 3.05383 2.57177 3.05383 4.06058V5.43249C3.05383 5.80764 2.74936 6.11211 2.37422 6.11211C1.99907 6.11211 1.6946 5.80764 1.6946 5.43249V4.06058C1.6946 1.82238 3.51688 9.91821e-05 5.75689 9.91821e-05H6.8769Z" fill="#134BC8"/>
</svg>
