<svg width="25" height="25" viewBox="0 0 25 25" fill="none" xmlns="http://www.w3.org/2000/svg">
<g clip-path="url(#clip0_458_3985)">
<path d="M16.7914 9.84038V9.80566C16.7914 7.72233 15.1664 6.19455 12.7081 6.19455C11.9556 6.18211 11.2095 6.33557 10.523 6.64403C9.83649 6.95248 9.22633 7.40836 8.73589 7.97927C8.66776 8.04241 8.61298 8.11858 8.57481 8.20328C8.53664 8.28797 8.51585 8.37946 8.51367 8.47233C8.51363 8.55801 8.53082 8.64282 8.56422 8.72173C8.59762 8.80063 8.64655 8.87201 8.7081 8.93162C8.76965 8.99122 8.84256 9.03784 8.9225 9.06869C9.00243 9.09955 9.08776 9.11401 9.17339 9.11121C9.35685 9.10667 9.53227 9.03502 9.66645 8.90983C10.0376 8.47488 10.4986 8.12551 11.0177 7.88575C11.5367 7.64599 12.1016 7.52153 12.6734 7.52094C14.3123 7.52094 15.3331 8.57649 15.3331 9.88899V9.92371C15.3331 11.4584 14.1109 12.3126 12.1803 12.4584C12.1022 12.4615 12.0255 12.4809 11.9554 12.5156C11.8853 12.5503 11.8233 12.5994 11.7735 12.6598C11.7236 12.7201 11.6871 12.7902 11.6663 12.8656C11.6454 12.941 11.6408 13.02 11.6526 13.0973C11.6526 13.0973 11.6526 14.7084 11.6526 15.007C11.6698 15.1789 11.7506 15.3382 11.879 15.4538C12.0074 15.5694 12.1743 15.6329 12.347 15.632H12.4234C12.5953 15.6148 12.7546 15.534 12.8701 15.4056C12.9857 15.2772 13.0493 15.1104 13.0484 14.9376V13.507C15.104 13.1945 16.7914 12.1182 16.7914 9.84038Z" fill="#545454"/>
<path d="M12.3471 19.0623C12.8265 19.0623 13.2151 18.6736 13.2151 18.1942C13.2151 17.7148 12.8265 17.3262 12.3471 17.3262C11.8676 17.3262 11.479 17.7148 11.479 18.1942C11.479 18.6736 11.8676 19.0623 12.3471 19.0623Z" fill="#545454"/>
<path d="M22.9999 8.89585C22.5779 9.08916 22.1317 9.22464 21.6735 9.29863C22.4063 11.385 22.4087 13.6585 21.6802 15.7464C20.9516 17.8343 19.5355 19.6128 17.6638 20.7904C15.7921 21.968 13.5758 22.4749 11.3783 22.2279C9.18081 21.981 7.13235 20.9949 5.56869 19.4312C4.00503 17.8676 3.01892 15.8191 2.77198 13.6216C2.52503 11.4241 3.03191 9.20784 4.20952 7.33613C5.38713 5.46442 7.16563 4.04826 9.25354 3.31975C11.3414 2.59123 13.6149 2.59358 15.7013 3.32641C15.7754 2.86819 15.9108 2.42205 16.1041 2.00002C13.7195 1.17551 11.1259 1.18389 8.74676 2.0238C6.36762 2.8637 4.34356 4.48549 3.00517 6.62429C1.66677 8.76309 1.09314 11.2925 1.37794 13.7994C1.66275 16.3063 2.78917 18.6426 4.57323 20.4267C6.35729 22.2107 8.69357 23.3372 11.2005 23.622C13.7074 23.9068 16.2368 23.3331 18.3756 21.9947C20.5144 20.6563 22.1362 18.6323 22.9761 16.2531C23.816 13.874 23.8244 11.2804 22.9999 8.89585Z" fill="#545454"/>
<path d="M20.8336 7.63878C22.7512 7.63878 24.3058 6.08421 24.3058 4.16656C24.3058 2.2489 22.7512 0.694336 20.8336 0.694336C18.9159 0.694336 17.3613 2.2489 17.3613 4.16656C17.3613 6.08421 18.9159 7.63878 20.8336 7.63878Z" fill="#545454"/>
</g>
<defs>
<clipPath id="clip0_458_3985">
<rect width="25" height="25" fill="white"/>
</clipPath>
</defs>
</svg>
