<svg width="21" height="21" viewBox="0 0 21 21" fill="none" xmlns="http://www.w3.org/2000/svg">
<path fill-rule="evenodd" clip-rule="evenodd" d="M15.077 0C18.6197 0 21 2.48679 21 6.18767V14.8123C21 18.5132 18.6197 21 15.077 21H5.92298C2.38033 21 0 18.5132 0 14.8123V6.18767C0 2.48679 2.38033 0 5.92298 0H15.077ZM15.077 1.46512H5.92298C3.21544 1.46512 1.46512 3.318 1.46512 6.18767V14.8123C1.46512 17.682 3.21544 19.5349 5.92298 19.5349H15.077C17.7855 19.5349 19.5349 17.682 19.5349 14.8123V6.18767C19.5349 3.318 17.7855 1.46512 15.077 1.46512ZM10.5 6.18015C10.9044 6.18015 11.2326 6.50834 11.2326 6.91271V9.75767L14.0812 9.75787C14.4856 9.75787 14.8138 10.0861 14.8138 10.4904C14.8138 10.8948 14.4856 11.223 14.0812 11.223L11.2326 11.2228V14.0693C11.2326 14.4737 10.9044 14.8019 10.5 14.8019C10.0956 14.8019 9.76744 14.4737 9.76744 14.0693V11.2228L6.91877 11.223C6.51342 11.223 6.18621 10.8948 6.18621 10.4904C6.18621 10.0861 6.51342 9.75787 6.91877 9.75787L9.76744 9.75767V6.91271C9.76744 6.50834 10.0956 6.18015 10.5 6.18015Z" fill="#134BC8"/>
</svg>
