<svg width="22" height="21" viewBox="0 0 22 21" fill="none" xmlns="http://www.w3.org/2000/svg">
<path fill-rule="evenodd" clip-rule="evenodd" d="M17.8148 12.45C19.9395 12.45 21.668 14.1698 21.668 16.2834C21.668 18.3969 19.9395 20.1168 17.8148 20.1168C15.6888 20.1168 13.9591 18.3969 13.9591 16.2834C13.9591 14.1698 15.6888 12.45 17.8148 12.45ZM17.8148 14.3072C16.7128 14.3072 15.8163 15.1938 15.8163 16.2834C15.8163 17.3742 16.7128 18.2595 17.8148 18.2595C18.9155 18.2595 19.8107 17.3742 19.8107 16.2834C19.8107 15.1938 18.9155 14.3072 17.8148 14.3072ZM8.76666 15.4028C9.27927 15.4028 9.6953 15.8188 9.6953 16.3314C9.6953 16.844 9.27927 17.26 8.76666 17.26H0.964911C0.452306 17.26 0.0362786 16.844 0.0362786 16.3314C0.0362786 15.8188 0.452306 15.4028 0.964911 15.4028H8.76666ZM3.85444 0.429749C5.98039 0.429749 7.70889 2.15081 7.70889 4.26438C7.70889 6.37795 5.98039 8.09654 3.85444 8.09654C1.72973 8.09654 0 6.37795 0 4.26438C0 2.15081 1.72973 0.429749 3.85444 0.429749ZM3.85444 2.28701C2.7537 2.28701 1.85726 3.17355 1.85726 4.26438C1.85726 5.35398 2.7537 6.23927 3.85444 6.23927C4.95642 6.23927 5.85162 5.35398 5.85162 4.26438C5.85162 3.17355 4.95642 2.28701 3.85444 2.28701ZM20.0474 3.40187C20.56 3.40187 20.9761 3.81789 20.9761 4.3305C20.9761 4.8431 20.56 5.25913 20.0474 5.25913H12.2469C11.7343 5.25913 11.3183 4.8431 11.3183 4.3305C11.3183 3.81789 11.7343 3.40187 12.2469 3.40187H20.0474Z" fill="#535353"/>
</svg>
