<svg width="20" height="20" viewBox="0 0 20 20" fill="none" xmlns="http://www.w3.org/2000/svg">
<path d="M13.1874 0.472748L19.6646 6.73397C19.7271 6.79445 19.7769 6.86691 19.8109 6.94703C19.8449 7.02715 19.8624 7.11329 19.8624 7.20032C19.8624 7.28735 19.8449 7.37349 19.8109 7.45361C19.7769 7.53373 19.7271 7.60619 19.6646 7.66667L13.1874 13.9279C13.1282 13.9862 13.0581 14.0323 12.981 14.0634C12.9039 14.0945 12.8215 14.1101 12.7383 14.1093C12.5666 14.1093 12.4018 14.041 12.2803 13.9195C12.1589 13.7981 12.0906 13.6333 12.0906 13.4615V10.2316C6.3044 10.4648 3.869 13.7034 3.76537 13.8415C3.68292 13.9501 3.56911 14.0306 3.43936 14.0723C3.30961 14.114 3.17017 14.1149 3.03993 14.0747C2.91002 14.0329 2.79665 13.951 2.716 13.8409C2.63535 13.7308 2.59155 13.598 2.59085 13.4615C2.59085 6.53534 8.28208 4.41084 12.0906 4.19494V0.9391C12.0909 0.811716 12.1288 0.687243 12.1994 0.581252C12.2701 0.475262 12.3704 0.39246 12.4879 0.343205C12.6042 0.293042 12.7328 0.278574 12.8574 0.301639C12.9819 0.324704 13.0968 0.384261 13.1874 0.472748ZM13.3861 9.57527V11.9157L18.2828 7.20032L13.3861 2.4677V4.82538C13.3838 4.99646 13.3149 5.15992 13.1939 5.2809C13.0729 5.40189 12.9094 5.47085 12.7383 5.47309C11.9006 5.47309 5.09534 5.66308 4.02445 11.7602C6.50823 9.82561 9.59177 8.82323 12.7383 8.92755C12.9094 8.92979 13.0729 8.99875 13.1939 9.11974C13.3149 9.24073 13.3838 9.40418 13.3861 9.57527ZM17.0331 14.3018C17.1539 14.1808 17.3172 14.1117 17.4882 14.1093C17.6593 14.1115 17.8228 14.1805 17.9438 14.3014C18.0648 14.4224 18.1337 14.5859 18.136 14.757V15.1888C18.136 16.2767 17.7038 17.3201 16.9345 18.0895C16.1651 18.8588 15.1217 19.291 14.0338 19.291H4.10218C3.01421 19.291 1.97081 18.8588 1.2015 18.0895C0.432193 17.3201 0 16.2767 0 15.1888V5.25718C0 4.16922 0.432193 3.12581 1.2015 2.35651C1.97081 1.5872 3.01421 1.155 4.10218 1.155H7.98845C8.16024 1.155 8.32499 1.22325 8.44646 1.34472C8.56793 1.46618 8.63617 1.63093 8.63617 1.80272C8.63617 1.9745 8.56793 2.13925 8.44646 2.26072C8.32499 2.38219 8.16024 2.45043 7.98845 2.45043H4.10218C3.35848 2.45271 2.6459 2.74915 2.12002 3.27503C1.59415 3.8009 1.2977 4.51349 1.29543 5.25718V15.1888C1.2977 15.9325 1.59415 16.6451 2.12002 17.1709C2.6459 17.6968 3.35848 17.9933 4.10218 17.9955H14.0338C14.7775 17.9933 15.4901 17.6968 16.0159 17.1709C16.5418 16.6451 16.8382 15.9325 16.8405 15.1888V14.757C16.843 14.586 16.9121 14.4227 17.0331 14.3018Z" fill="#134BC8"/>
</svg>
