<svg width="20" height="21" viewBox="0 0 20 21" fill="none" xmlns="http://www.w3.org/2000/svg">
<path fill-rule="evenodd" clip-rule="evenodd" d="M8.96317 12.6048L12.6859 18.6445C12.8488 18.9091 13.1033 18.9061 13.2061 18.8918C13.3089 18.8776 13.5563 18.8145 13.6458 18.5142L18.301 2.79161C18.3825 2.5137 18.2328 2.32436 18.1656 2.25718C18.1005 2.18999 17.9142 2.04646 17.6444 2.1228L1.91067 6.73014C1.61241 6.81768 1.54726 7.0681 1.53301 7.17092C1.51876 7.27577 1.51468 7.53535 1.77834 7.70128L7.88718 11.5217L13.2845 6.06744C13.5807 5.76816 14.0642 5.7651 14.3645 6.06133C14.6648 6.35756 14.6669 6.84211 14.3706 7.1414L8.96317 12.6048ZM13.1267 20.4249C12.4182 20.4249 11.7687 20.0645 11.3859 19.4456L7.43927 13.0416L0.969052 8.99512C0.271742 8.55841 -0.0926913 7.78068 0.0203034 6.96325C0.13228 6.14582 0.693182 5.49636 1.48109 5.26528L17.2148 0.657944C17.9386 0.446206 18.7143 0.646746 19.2477 1.17813C19.7811 1.7146 19.9797 2.49843 19.7638 3.22527L15.1087 18.9468C14.8755 19.7378 14.224 20.2966 13.4087 20.4056C13.313 20.4178 13.2203 20.4249 13.1267 20.4249Z" fill="white"/>
</svg>
