<svg width="49" height="50" viewBox="0 0 49 50" fill="none" xmlns="http://www.w3.org/2000/svg">
<rect y="0.852051" width="49" height="49" rx="24.5" fill="#134BC8"/>
<rect x="0.388889" y="1.24094" width="48.2222" height="48.2222" rx="24.1111" stroke="#0389E2" stroke-opacity="0.41" stroke-width="0.777778"/>
<path d="M33.9233 24.6921C33.9233 27.1913 32.9305 29.5881 31.1633 31.3552C29.3962 33.1224 26.9994 34.1152 24.5002 34.1152C22.0011 34.1152 19.6043 33.1224 17.8371 31.3552C16.0699 29.5881 15.0771 27.1913 15.0771 24.6921C15.0771 22.193 16.0699 19.7962 17.8371 18.029C19.6043 16.2618 22.0011 15.269 24.5002 15.269C26.9994 15.269 29.3962 16.2618 31.1633 18.029C32.9305 19.7962 33.9233 22.193 33.9233 24.6921ZM19.7887 24.6921C19.7887 24.8483 19.8507 24.9981 19.9612 25.1086C20.0716 25.219 20.2214 25.2811 20.3776 25.2811H23.9113V28.8147C23.9113 28.9709 23.9733 29.1207 24.0838 29.2312C24.1942 29.3416 24.344 29.4037 24.5002 29.4037C24.6564 29.4037 24.8062 29.3416 24.9167 29.2312C25.0271 29.1207 25.0892 28.9709 25.0892 28.8147V25.2811H28.6228C28.779 25.2811 28.9288 25.219 29.0393 25.1086C29.1497 24.9981 29.2118 24.8483 29.2118 24.6921C29.2118 24.5359 29.1497 24.3861 29.0393 24.2757C28.9288 24.1652 28.779 24.1032 28.6228 24.1032H25.0892V20.5695C25.0892 20.4133 25.0271 20.2635 24.9167 20.1531C24.8062 20.0426 24.6564 19.9806 24.5002 19.9806C24.344 19.9806 24.1942 20.0426 24.0838 20.1531C23.9733 20.2635 23.9113 20.4133 23.9113 20.5695V24.1032H20.3776C20.2214 24.1032 20.0716 24.1652 19.9612 24.2757C19.8507 24.3861 19.7887 24.5359 19.7887 24.6921Z" fill="white"/>
</svg>
