<svg width="21" height="21" viewBox="0 0 21 21" fill="none" xmlns="http://www.w3.org/2000/svg">
<path d="M20.3077 10.75C20.3077 13.443 19.2379 16.0256 17.3337 17.9299C15.4295 19.8341 12.8468 20.9039 10.1538 20.9039C7.46088 20.9039 4.87821 19.8341 2.97399 17.9299C1.06978 16.0256 0 13.443 0 10.75C0 8.05704 1.06978 5.47437 2.97399 3.57015C4.87821 1.66594 7.46088 0.596161 10.1538 0.596161C12.8468 0.596161 15.4295 1.66594 17.3337 3.57015C19.2379 5.47437 20.3077 8.05704 20.3077 10.75ZM5.07692 10.75C5.07692 10.9183 5.14378 11.0797 5.2628 11.1987C5.38181 11.3178 5.54323 11.3846 5.71154 11.3846H9.51923V15.1923C9.51923 15.3606 9.58609 15.522 9.7051 15.6411C9.82412 15.7601 9.98554 15.8269 10.1538 15.8269C10.3222 15.8269 10.4836 15.7601 10.6026 15.6411C10.7216 15.522 10.7885 15.3606 10.7885 15.1923V11.3846H14.5962C14.7645 11.3846 14.9259 11.3178 15.0449 11.1987C15.1639 11.0797 15.2308 10.9183 15.2308 10.75C15.2308 10.5817 15.1639 10.4203 15.0449 10.3013C14.9259 10.1823 14.7645 10.1154 14.5962 10.1154H10.7885V6.3077C10.7885 6.13939 10.7216 5.97797 10.6026 5.85896C10.4836 5.73994 10.3222 5.67308 10.1538 5.67308C9.98554 5.67308 9.82412 5.73994 9.7051 5.85896C9.58609 5.97797 9.51923 6.13939 9.51923 6.3077V10.1154H5.71154C5.54323 10.1154 5.38181 10.1823 5.2628 10.3013C5.14378 10.4203 5.07692 10.5817 5.07692 10.75Z" fill="white"/>
</svg>
