<svg width="14" height="15" viewBox="0 0 14 15" fill="none" xmlns="http://www.w3.org/2000/svg">
<path fill-rule="evenodd" clip-rule="evenodd" d="M0 7.74268C0 5.88616 0.737498 4.10568 2.05025 2.79293C3.36301 1.48017 5.14348 0.742676 7 0.742676C8.85652 0.742676 10.637 1.48017 11.9497 2.79293C13.2625 4.10568 14 5.88616 14 7.74268C14 9.59919 13.2625 11.3797 11.9497 12.6924C10.637 14.0052 8.85652 14.7427 7 14.7427C5.14348 14.7427 3.36301 14.0052 2.05025 12.6924C0.737498 11.3797 0 9.59919 0 7.74268H0ZM6.60053 10.7387L10.6307 5.70054L9.90267 5.11814L6.46613 9.41241L4.032 7.38428L3.43467 8.10108L6.60053 10.7396V10.7387Z" fill="#134BC8"/>
</svg>
