<svg width="25" height="24" viewBox="0 0 25 24" fill="none" xmlns="http://www.w3.org/2000/svg">
<g clip-path="url(#clip0)">
<path d="M12.1636 24C18.791 24 24.1636 18.6274 24.1636 12C24.1636 5.37258 18.791 0 12.1636 0C5.53616 0 0.163574 5.37258 0.163574 12C0.163574 18.6274 5.53616 24 12.1636 24Z" fill="#1CB7EB"/>
<path d="M18.5635 7.6999C18.1135 7.9499 17.5635 8.0999 17.0635 8.1499C17.6135 7.7999 18.0135 7.2499 18.2135 6.5999C17.7135 6.8999 17.1635 7.1499 16.5135 7.2999C16.0135 6.7499 15.3635 6.3999 14.6135 6.3999C13.1635 6.3999 11.9635 7.6499 11.9635 9.2499C11.9635 9.4499 11.9635 9.6999 12.0135 9.8999C9.81353 9.7999 7.86353 8.6499 6.56353 6.9499C6.31353 7.3499 6.21353 7.8499 6.21353 8.3999C6.21353 9.3999 6.66353 10.2499 7.36353 10.7499C6.91353 10.7499 6.51353 10.5999 6.16353 10.3999V10.4499C6.16353 11.7999 7.06353 12.9499 8.26353 13.2499C8.06353 13.2999 7.81353 13.3499 7.56353 13.3499C7.41353 13.3499 7.21353 13.3499 7.06353 13.2999C7.41353 14.4499 8.36353 15.2499 9.51353 15.2499C8.61353 15.9999 7.46353 16.4499 6.26353 16.4499C6.06353 16.4499 5.86353 16.4499 5.61353 16.3999C6.76353 17.1999 8.16353 17.6999 9.66353 17.6999C14.5135 17.6999 17.1635 13.3999 17.1635 9.6499C17.1635 9.5499 17.1635 9.3999 17.1635 9.2999C17.7635 8.7999 18.2135 8.2999 18.5635 7.6999Z" fill="white"/>
</g>
<defs>
<clipPath id="clip0">
<rect width="24" height="24" fill="white" transform="translate(0.163574)"/>
</clipPath>
</defs>
</svg>
