<svg width="19" height="19" viewBox="0 0 19 19" fill="none" xmlns="http://www.w3.org/2000/svg">
<path fill-rule="evenodd" clip-rule="evenodd" d="M17.8202 16.6407C18.2137 16.6407 18.533 16.9601 18.533 17.3535C18.533 17.747 18.2137 18.0663 17.8202 18.0663H10.9271C10.5336 18.0663 10.2143 17.747 10.2143 17.3535C10.2143 16.9601 10.5336 16.6407 10.9271 16.6407H17.8202ZM13.4159 0.68762C13.4635 0.724685 15.0534 1.96019 15.0534 1.96019C15.6313 2.30423 16.0827 2.91913 16.2538 3.64713C16.4239 4.36752 16.3004 5.11072 15.904 5.73893C15.9014 5.74312 15.8988 5.74726 15.8896 5.75958L15.8824 5.76909C15.8181 5.85387 15.5385 6.20746 14.1271 7.97575C14.114 7.99893 14.0991 8.02063 14.0829 8.04172C14.0591 8.07281 14.0332 8.10138 14.0056 8.12741C13.9093 8.24861 13.8076 8.37597 13.7007 8.50988L13.4841 8.78118C13.0371 9.34093 12.507 10.0047 11.878 10.792L11.5552 11.196C10.3409 12.7158 8.7858 14.6617 6.79363 17.154C6.3574 17.6977 5.70354 18.0141 5.0012 18.0227L1.54274 18.0664H1.53324C1.20345 18.0664 0.916434 17.8402 0.839453 17.518L0.0610855 14.2192C-0.09953 13.5359 0.0601351 12.8307 0.498264 12.2833L9.45091 1.08583C9.45472 1.08203 9.45757 1.07728 9.46137 1.07348C10.4431 -0.100251 12.2184 -0.273222 13.4159 0.68762ZM8.45275 4.61591L1.61117 13.1738C1.44865 13.3772 1.38878 13.6395 1.44865 13.8914L2.09587 16.6332L4.98409 16.5971C5.25875 16.5943 5.51251 16.4717 5.68073 16.2626C6.54699 15.1787 7.63573 13.8165 8.75509 12.4158L9.15112 11.9202L9.54782 11.4237C10.5976 10.11 11.6347 8.81194 12.5025 7.72545L8.45275 4.61591ZM10.5591 1.983L9.34326 3.50206L13.3926 6.61071C14.1721 5.63444 14.6848 4.99145 14.7322 4.93015C14.8881 4.67735 14.9489 4.32 14.8672 3.97596C14.7835 3.62337 14.564 3.324 14.2475 3.13297C14.18 3.0864 12.5786 1.84329 12.5292 1.80433C11.9267 1.32153 11.0476 1.40516 10.5591 1.983Z" fill="white"/>
</svg>
