<svg width="16" height="17" viewBox="0 0 16 17" fill="none" xmlns="http://www.w3.org/2000/svg">
<path d="M16 5.38889V13.6111C16 14.3773 15.6956 15.1121 15.1539 15.6539C14.6121 16.1956 13.8773 16.5 13.1111 16.5H2.88889C2.12271 16.5 1.38791 16.1956 0.846136 15.6539C0.304364 15.1121 0 14.3773 0 13.6111V5.38889H16ZM3.77778 11.1667C3.48309 11.1667 3.20048 11.2837 2.9921 11.4921C2.78373 11.7005 2.66667 11.9831 2.66667 12.2778C2.66667 12.5725 2.78373 12.8551 2.9921 13.0635C3.20048 13.2718 3.48309 13.3889 3.77778 13.3889C4.07246 13.3889 4.35508 13.2718 4.56345 13.0635C4.77183 12.8551 4.88889 12.5725 4.88889 12.2778C4.88889 11.9831 4.77183 11.7005 4.56345 11.4921C4.35508 11.2837 4.07246 11.1667 3.77778 11.1667ZM8 11.1667C7.70532 11.1667 7.4227 11.2837 7.21433 11.4921C7.00595 11.7005 6.88889 11.9831 6.88889 12.2778C6.88889 12.5725 7.00595 12.8551 7.21433 13.0635C7.4227 13.2718 7.70532 13.3889 8 13.3889C8.29469 13.3889 8.5773 13.2718 8.78567 13.0635C8.99405 12.8551 9.11111 12.5725 9.11111 12.2778C9.11111 11.9831 8.99405 11.7005 8.78567 11.4921C8.5773 11.2837 8.29469 11.1667 8 11.1667ZM3.77778 7.16667C3.48309 7.16667 3.20048 7.28373 2.9921 7.4921C2.78373 7.70048 2.66667 7.98309 2.66667 8.27778C2.66667 8.57246 2.78373 8.85508 2.9921 9.06345C3.20048 9.27183 3.48309 9.38889 3.77778 9.38889C4.07246 9.38889 4.35508 9.27183 4.56345 9.06345C4.77183 8.85508 4.88889 8.57246 4.88889 8.27778C4.88889 7.98309 4.77183 7.70048 4.56345 7.4921C4.35508 7.28373 4.07246 7.16667 3.77778 7.16667ZM8 7.16667C7.70532 7.16667 7.4227 7.28373 7.21433 7.4921C7.00595 7.70048 6.88889 7.98309 6.88889 8.27778C6.88889 8.57246 7.00595 8.85508 7.21433 9.06345C7.4227 9.27183 7.70532 9.38889 8 9.38889C8.29469 9.38889 8.5773 9.27183 8.78567 9.06345C8.99405 8.85508 9.11111 8.57246 9.11111 8.27778C9.11111 7.98309 8.99405 7.70048 8.78567 7.4921C8.5773 7.28373 8.29469 7.16667 8 7.16667ZM12.2222 7.16667C11.9275 7.16667 11.6449 7.28373 11.4365 7.4921C11.2282 7.70048 11.1111 7.98309 11.1111 8.27778C11.1111 8.57246 11.2282 8.85508 11.4365 9.06345C11.6449 9.27183 11.9275 9.38889 12.2222 9.38889C12.5169 9.38889 12.7995 9.27183 13.0079 9.06345C13.2163 8.85508 13.3333 8.57246 13.3333 8.27778C13.3333 7.98309 13.2163 7.70048 13.0079 7.4921C12.7995 7.28373 12.5169 7.16667 12.2222 7.16667ZM13.1111 0.5C13.8773 0.5 14.6121 0.804364 15.1539 1.34614C15.6956 1.88791 16 2.62271 16 3.38889V4.05556H0V3.38889C0 2.62271 0.304364 1.88791 0.846136 1.34614C1.38791 0.804364 2.12271 0.5 2.88889 0.5H13.1111Z" fill="#C85F13"/>
</svg>
