<svg width="17" height="17" viewBox="0 0 17 17" fill="none" xmlns="http://www.w3.org/2000/svg">
<path d="M0.625 3.90625C0.625 3.03601 0.970702 2.20141 1.58606 1.58606C2.20141 0.970702 3.03601 0.625 3.90625 0.625H13.0938C13.964 0.625 14.7986 0.970702 15.4139 1.58606C16.0293 2.20141 16.375 3.03601 16.375 3.90625V8.5H11.7812C10.911 8.5 10.0764 8.8457 9.46106 9.46106C8.8457 10.0764 8.5 10.911 8.5 11.7812V16.375H3.90625C3.03601 16.375 2.20141 16.0293 1.58606 15.4139C0.970702 14.7986 0.625 13.964 0.625 13.0938V3.90625ZM9.8125 16.1899C10.2767 16.0271 10.6983 15.762 11.0462 15.4142L15.4142 11.0449C15.7614 10.6973 16.026 10.2761 16.1886 9.8125H11.7812C11.2591 9.8125 10.7583 10.0199 10.3891 10.3891C10.0199 10.7583 9.8125 11.2591 9.8125 11.7812V16.1899Z" fill="#63C813"/>
</svg>
