<svg width="19" height="17" viewBox="0 0 19 17" fill="none" xmlns="http://www.w3.org/2000/svg">
<path d="M5.7 8.02481C6.70782 8.02481 7.67437 7.62445 8.38701 6.91181C9.09964 6.19917 9.5 5.23263 9.5 4.22481C9.5 3.21698 9.09964 2.25044 8.38701 1.5378C7.67437 0.825161 6.70782 0.424805 5.7 0.424805C4.69218 0.424805 3.72563 0.825161 3.01299 1.5378C2.30036 2.25044 1.9 3.21698 1.9 4.22481C1.9 5.23263 2.30036 6.19917 3.01299 6.91181C3.72563 7.62445 4.69218 8.02481 5.7 8.02481ZM14.25 8.02481C15.0059 8.02481 15.7308 7.72454 16.2653 7.19006C16.7997 6.65558 17.1 5.93067 17.1 5.17481C17.1 4.41894 16.7997 3.69403 16.2653 3.15955C15.7308 2.62507 15.0059 2.3248 14.25 2.3248C13.4941 2.3248 12.7692 2.62507 12.2347 3.15955C11.7003 3.69403 11.4 4.41894 11.4 5.17481C11.4 5.93067 11.7003 6.65558 12.2347 7.19006C12.7692 7.72454 13.4941 8.02481 14.25 8.02481ZM2.1375 9.92481C1.5706 9.92481 1.02692 10.15 0.626059 10.5509C0.2252 10.9517 0 11.4954 0 12.0623V12.2998C0 12.2998 0 16.5748 5.7 16.5748C11.4 16.5748 11.4 12.2998 11.4 12.2998V12.0623C11.4 11.4954 11.1748 10.9517 10.7739 10.5509C10.3731 10.15 9.8294 9.92481 9.2625 9.92481H2.1375ZM14.25 15.1498C13.1375 15.1498 12.2854 14.9779 11.6327 14.7147C12.0126 14.0736 12.251 13.3588 12.332 12.6181C12.3412 12.528 12.3472 12.4377 12.35 12.3473V12.0623C12.3512 11.2664 12.0441 10.501 11.4931 9.92671C11.5254 9.92536 11.5577 9.92473 11.59 9.92481H16.91C17.4643 9.92481 17.9959 10.145 18.3879 10.537C18.7798 10.9289 19 11.4605 19 12.0148C19 12.0148 19 15.1498 14.25 15.1498Z" fill="#009568"/>
</svg>
