<svg width="20" height="17" viewBox="0 0 20 17" fill="none" xmlns="http://www.w3.org/2000/svg">
<path d="M2.2546 0C1.65664 0 1.08317 0.237537 0.660356 0.660356C0.237537 1.08317 0 1.65664 0 2.2546V14.1425C0 14.7404 0.237537 15.3139 0.660356 15.7367C1.08317 16.1595 1.65664 16.3971 2.2546 16.3971H17.4186C18.0166 16.3971 18.59 16.1595 19.0128 15.7367C19.4357 15.3139 19.6732 14.7404 19.6732 14.1425V2.2546C19.6732 1.65664 19.4357 1.08317 19.0128 0.660356C18.59 0.237537 18.0166 0 17.4186 0H2.25542H2.2546ZM10.6548 6.35386C10.6548 6.19078 10.7196 6.03438 10.8349 5.91907C10.9502 5.80375 11.1066 5.73897 11.2697 5.73897H15.7789C15.942 5.73897 16.0984 5.80375 16.2137 5.91907C16.329 6.03438 16.3938 6.19078 16.3938 6.35386C16.3938 6.51694 16.329 6.67334 16.2137 6.78865C16.0984 6.90397 15.942 6.96875 15.7789 6.96875H11.2697C11.1066 6.96875 10.9502 6.90397 10.8349 6.78865C10.7196 6.67334 10.6548 6.51694 10.6548 6.35386ZM11.2697 9.01838H15.7789C15.942 9.01838 16.0984 9.08317 16.2137 9.19848C16.329 9.3138 16.3938 9.47019 16.3938 9.63327C16.3938 9.79635 16.329 9.95275 16.2137 10.0681C16.0984 10.1834 15.942 10.2482 15.7789 10.2482H11.2697C11.1066 10.2482 10.9502 10.1834 10.8349 10.0681C10.7196 9.95275 10.6548 9.79635 10.6548 9.63327C10.6548 9.47019 10.7196 9.3138 10.8349 9.19848C10.9502 9.08317 11.1066 9.01838 11.2697 9.01838ZM7.58036 6.35386C7.58036 6.73438 7.4292 7.09931 7.16014 7.36838C6.89107 7.63744 6.52614 7.7886 6.14562 7.7886C5.7651 7.7886 5.40017 7.63744 5.1311 7.36838C4.86204 7.09931 4.71088 6.73438 4.71088 6.35386C4.71088 5.97334 4.86204 5.60841 5.1311 5.33934C5.40017 5.07028 5.7651 4.91912 6.14562 4.91912C6.52614 4.91912 6.89107 5.07028 7.16014 5.33934C7.4292 5.60841 7.58036 5.97334 7.58036 6.35386ZM4.09599 8.60846H8.19525C8.41269 8.60846 8.62122 8.69483 8.77497 8.84859C8.92873 9.00234 9.0151 9.21087 9.0151 9.42831V9.83824C9.0151 9.83824 8.60518 11.8879 6.14562 11.8879C3.68606 11.8879 3.27613 9.83824 3.27613 9.83824V9.42831C3.27613 9.21087 3.36251 9.00234 3.51626 8.84859C3.67001 8.69483 3.87855 8.60846 4.09599 8.60846Z" fill="#3330A3"/>
</svg>
