<svg width="14" height="18" viewBox="0 0 14 18" fill="none" xmlns="http://www.w3.org/2000/svg">
<path d="M11.6726 10.6225C11.9126 10.6225 12.1503 10.6698 12.3721 10.7617C12.5939 10.8536 12.7953 10.9883 12.965 11.1581C13.1347 11.3278 13.2693 11.5294 13.3611 11.7512C13.4529 11.973 13.5001 12.2107 13.5 12.4508V13.1967C13.4998 13.6624 13.354 14.1163 13.0832 14.4951C11.8278 16.2535 9.77608 17.1237 6.99716 17.1237C4.21742 17.1237 2.16735 16.2527 0.914401 14.4943C0.644736 14.1157 0.499877 13.6624 0.5 13.1975V12.4499C0.5 11.9656 0.692309 11.501 1.03467 11.1583C1.37702 10.8157 1.84142 10.623 2.3258 10.6225H11.6718H11.6726ZM6.99716 0.875977C7.53068 0.875977 8.05899 0.981063 8.5519 1.18524C9.04482 1.38941 9.4927 1.68867 9.86996 2.06593C10.2472 2.44319 10.5465 2.89107 10.7507 3.38398C10.9548 3.8769 11.0599 4.4052 11.0599 4.93873C11.0599 5.47226 10.9548 6.00056 10.7507 6.49348C10.5465 6.98639 10.2472 7.43427 9.86996 7.81153C9.4927 8.18879 9.04482 8.48805 8.5519 8.69222C8.05899 8.8964 7.53068 9.00148 6.99716 9.00148C5.91965 9.00148 4.88627 8.57344 4.12436 7.81153C3.36244 7.04962 2.9344 6.01624 2.9344 4.93873C2.9344 3.86122 3.36244 2.82784 4.12436 2.06593C4.88627 1.30402 5.91965 0.875977 6.99716 0.875977Z" fill="#CDAE0A"/>
</svg>
