<svg width="14" height="16" viewBox="0 0 14 16" fill="none" xmlns="http://www.w3.org/2000/svg">
<path d="M1.2724 5.7276C1.2724 4.20855 1.87584 2.75171 2.94997 1.67758C4.02411 0.603442 5.48095 0 7 0C8.51905 0 9.97589 0.603442 11.05 1.67758C12.1242 2.75171 12.7276 4.20855 12.7276 5.7276V8.15038L13.9546 11.2191C13.9931 11.3156 14.0075 11.4201 13.9963 11.5235C13.9852 11.6268 13.9489 11.7259 13.8906 11.8119C13.8324 11.898 13.7539 11.9685 13.6621 12.0173C13.5703 12.066 13.4679 12.0915 13.364 12.0916H0.635998C0.532054 12.0915 0.429709 12.066 0.337908 12.0173C0.246107 11.9685 0.167645 11.898 0.10938 11.8119C0.0511155 11.7259 0.0148222 11.6268 0.00367222 11.5235C-0.00747777 11.4201 0.00685512 11.3156 0.0454182 11.2191L1.2724 8.15038V5.7276ZM4.53395 13.3644C4.6741 13.9116 4.99269 14.3964 5.43933 14.7422C5.88597 15.088 6.43515 15.275 7 15.2736C7.56485 15.275 8.11403 15.088 8.56067 14.7422C9.00731 14.3964 9.3259 13.9116 9.46605 13.3644H4.53395Z" fill="#6E13C8"/>
</svg>
