<svg width="22" height="22" viewBox="0 0 22 22" fill="none" xmlns="http://www.w3.org/2000/svg">
<path d="M11.0013 21.8327C5.01805 21.8327 0.167969 16.9826 0.167969 10.9993C0.167969 5.0161 5.01805 0.166016 11.0013 0.166016C16.9846 0.166016 21.8346 5.0161 21.8346 10.9993C21.8346 16.9826 16.9846 21.8327 11.0013 21.8327ZM6.32455 11.0719C6.38743 11.1348 6.46208 11.1847 6.54424 11.2188C6.62639 11.2528 6.71445 11.2703 6.80339 11.2703C6.89232 11.2703 6.98038 11.2528 7.06254 11.2188C7.14469 11.1847 7.21934 11.1348 7.28222 11.0719L10.3242 8.02993V15.7389C10.3242 15.9185 10.3956 16.0907 10.5225 16.2177C10.6495 16.3447 10.8217 16.416 11.0013 16.416C11.1809 16.416 11.3531 16.3447 11.4801 16.2177C11.6071 16.0907 11.6784 15.9185 11.6784 15.7389V8.02993L14.7204 11.0719C14.8474 11.1989 15.0196 11.2703 15.1992 11.2703C15.3788 11.2703 15.5511 11.1989 15.6781 11.0719C15.805 10.9449 15.8764 10.7727 15.8764 10.5931C15.8764 10.4135 15.805 10.2413 15.6781 10.1143L11.4801 5.91635C11.4173 5.85346 11.3426 5.80357 11.2605 5.76953C11.1783 5.73549 11.0902 5.71797 11.0013 5.71797C10.9124 5.71797 10.8243 5.73549 10.7422 5.76953C10.66 5.80357 10.5853 5.85346 10.5225 5.91635L6.32455 10.1143C6.26166 10.1771 6.21177 10.2518 6.17773 10.334C6.14369 10.4161 6.12618 10.5042 6.12618 10.5931C6.12618 10.682 6.14369 10.7701 6.17773 10.8522C6.21177 10.9344 6.26166 11.0091 6.32455 11.0719Z" fill="#5F55D2"/>
</svg>
